<svg xmlns="http://www.w3.org/2000/svg" viewBox="0 0 1000 1000"><path fill="#f3eee8" d="M949 336Q950 335 949 335A0 0 0 0 0 949 335Q946 342 944 346 942 350 937 356 926 369 912 377 903 382 900 384 881 394 861 399 858 396 856 394C852 390 846 387 841 383Q838 380 837 379 822 369 803 354 790 345 769 331C760 326 750 320 742 317 717 305 690 298 662 297Q633 295 604 297 604 298 592 299 586 300 581 301 547 307 514 317C499 322 492 324 480 329Q469 333 458 336 447 340 445 340 437 343 432 344 429 345 411 351C399 354 392 357 379 362Q372 364 355 372C336 381 316 395 301 411Q293 420 288 432 246 427 206 415 167 403 131 383 107 369 87 351 84 349 77 341 69 332 65 322 64 321 62 314A9 9 36 0 1 62 312Q62 310 62 307 62 307 61 307 61 307 61 307 61 305 62 304C69 291 79 281 91 274A4 4-8 0 0 92 272C100 246 120 226 143 212 179 190 222 180 263 177 269 177 275 176 281 174 314 167 345 161 377 168Q419 178 444 213 450 221 456 230 463 240 474 248C487 258 502 265 518 270Q546 279 574 280 592 280 607 277 624 273 637 267C646 263 652 261 659 258Q681 248 698 240C718 231 738 224 760 220Q789 214 819 218C866 225 912 248 937 290Q947 307 949 327 950 331 949 336Z"></path><path fill="#f7f4ef" d="M861 399C830 408 798 411 767 408 753 407 738 405 725 402Q708 397 697 395 630 378 561 386 553 387 542 389 527 392 522 393 519 393 482 403 453 410 426 422 413 427 408 429 387 436 368 437 340 440 311 436 305 435 288 432 293 420 301 411C316 395 336 381 355 372Q372 364 379 362C392 357 399 354 411 351Q429 345 432 344 437 343 445 340 447 340 458 336 469 333 480 329C492 324 499 322 514 317Q547 307 581 301 586 300 592 299 604 298 604 297 633 295 662 297C690 298 717 305 742 317 750 320 760 326 769 331Q790 345 803 354 822 369 837 379 838 380 841 383C846 387 852 390 856 394Q858 396 861 399Z"></path><path fill="#e6dcd0" d="M288 432Q305 435 311 436 340 440 368 437 387 436 408 429 413 427 426 422 453 410 482 403 519 393 522 393 527 392 542 389 553 387 561 386 630 378 697 395 708 397 725 402C738 405 753 407 767 408 798 411 830 408 861 399Q881 394 900 384 903 382 912 377 926 369 937 356 942 350 944 346 946 342 949 335A0 0 0 0 1 949 335Q950 335 949 336 950 340 949 346C943 396 896 422 851 430 824 434 799 434 773 433 762 432 749 431 737 433Q725 434 716 437 689 445 662 459 653 463 651 464 642 468 629 477 625 473 620 472 625 468 630 465C633 463 636 461 639 459 642 457 648 455 651 453 654 450 658 449 662 446A10 10 17 0 1 664 445Q670 443 672 442 680 437 686 435C691 433 697 431 702 429Q706 426 709 425A0 0 0 0 0 709 425C704 424 701 423 696 422Q691 422 686 419C685 419 683 419 682 419 679 420 677 421 675 423 673 424 671 426 668 426 664 428 660 432 656 434Q646 441 642 443C637 445 634 449 629 452 624 456 620 459 615 462 612 464 609 469 605 472 602 474 600 477 598 479Q596 475 593 472C598 467 603 462 608 458Q611 456 615 452C622 446 631 439 639 433Q647 426 649 425 655 421 659 418 662 416 664 415A0 0 0 0 0 664 414C660 414 655 412 651 411Q643 410 642 410A2 1-59 0 0 641 411Q625 422 613 434 609 437 607 439C602 444 598 449 593 453 591 456 589 459 586 462 585 464 582 465 581 467A8 8-10 0 0 580 468Q577 474 573 478A12 12-9 0 0 572 480L566 490Q561 487 556 488 560 482 564 477A13 13-8 0 0 565 475C569 470 571 466 576 462Q578 460 582 454A23 23 84 0 1 584 451Q588 446 591 442C594 439 597 436 599 433 602 430 607 426 610 422 614 417 619 412 623 408A1 1 0 0 0 623 407Q617 406 610 407C605 407 600 405 596 407Q595 407 593 409 591 411 588 414C585 417 583 422 581 424 577 429 575 434 571 439Q568 443 565 448 562 454 557 463C553 467 551 473 549 478 545 476 541 477 538 480Q539 476 539 475C543 468 546 463 549 456Q554 446 559 438C561 433 563 430 566 425Q566 424 570 416 572 411 575 407A1 1 0 0 0 575 406C571 406 566 406 562 407Q554 409 548 409A1 1-81 0 0 547 410L544 417A6 6-22 0 1 544 418Q540 425 539 427 538 433 535 439C531 449 529 458 526 468Q525 474 524 480 517 482 512 485C514 478 516 471 517 464Q520 452 520 449C523 440 524 431 527 422Q529 417 529 412A1 1 0 0 0 529 412Q526 412 524 412 514 414 504 417A1 1 0 0 0 503 418Q502 430 501 443 500 451 500 468C500 471 500 474 500 477Q501 484 501 492C500 489 497 478 493 487Q491 491 490 495C489 488 490 481 490 476 490 471 491 465 491 460 491 453 490 444 490 436Q490 427 490 421A1 1 78 0 0 489 421L465 428A1 1-15 0 0 465 429Q467 437 468 445C469 450 471 456 472 461Q472 461 473 469 475 476 477 485L468 488A1 1 0 0 0 468 489L470 503C468 496 468 489 466 482 464 476 463 472 462 465Q461 456 457 449C454 444 453 439 451 434A1 1 73 0 0 450 433Q447 434 445 435 433 440 426 443A1 1 0 0 0 425 443Q428 449 432 455 436 460 437 463C440 469 442 473 445 478Q449 484 453 491C456 498 460 504 464 511Q459 505 455 498C454 496 452 493 450 492Q445 489 440 487 438 483 436 480C434 475 430 471 427 466 426 464 423 460 421 458Q417 454 412 448A1 1-29 0 0 411 448C406 450 402 452 396 453 392 454 389 455 386 456A1 1 0 0 0 386 457C389 461 394 463 398 467Q401 470 404 473C409 477 412 481 417 485Q419 487 422 491 428 497 434 503 428 501 423 503 418 497 412 491 410 489 399 480C396 477 392 475 390 473Q387 471 385 469C380 466 376 465 371 461 368 460 361 461 358 462Q349 463 341 464 339 464 336 464A0 0 0 0 0 336 465Q341 467 350 472C354 475 359 475 363 478 366 480 368 481 371 483Q374 484 376 486L366 490Q355 484 342 479C336 476 331 474 326 472Q317 470 307 466C306 466 304 465 302 465Q300 465 287 465C230 464 173 448 124 418Q120 415 113 410 107 406 103 402 97 397 88 388 75 376 66 362 50 336 61 307 61 307 61 307 62 307 62 307 62 310 62 312A9 9 36 0 0 62 314Q64 321 65 322 69 332 77 341 84 349 87 351 107 369 131 383 167 403 206 415 246 427 288 432Z"></path><path fill="#d9cbb4" d="M556 488Q552 494 547 502C545 505 543 507 541 511Q539 514 537 517A0 0 0 0 1 536 517Q537 513 538 510 540 507 540 505C541 503 541 499 542 496Q544 492 548 482 549 480 549 478C551 473 553 467 557 463Q562 454 565 448 568 443 571 439C575 434 577 429 581 424 583 422 585 417 588 414Q591 411 593 409 595 407 596 407C600 405 605 407 610 407Q617 406 623 407A1 1 0 0 1 623 408C619 412 614 417 610 422 607 426 602 430 599 433 597 436 594 439 591 442Q588 446 584 451A23 23 84 0 0 582 454Q578 460 576 462C571 466 569 470 565 475A13 13-8 0 1 564 477Q560 482 556 488Z"></path><path fill="#d9cbb4" d="M538 480 533 492A3 3 74 0 1 533 492Q530 495 529 498C529 499 528 500 528 500 527 504 525 507 525 510Q523 515 521 519A0 0 0 0 1 520 519Q520 513 521 509C521 505 521 501 522 497Q523 488 524 480 525 474 526 468C529 458 531 449 535 439Q538 433 539 427 540 425 544 418A6 6-22 0 0 544 417L547 410A1 1-81 0 1 548 409Q554 409 562 407C566 406 571 406 575 406A1 1 0 0 1 575 407Q572 411 570 416 566 424 566 425C563 430 561 433 559 438Q554 446 549 456C546 463 543 468 539 475Q539 476 538 480Z"></path><path fill="#d9cbb4" d="M593 472Q583 481 580 485 577 488 576 489C573 492 570 495 568 497Q565 500 563 503 562 505 553 515A0 0-3 0 1 553 515L553 515A0 0 0 0 1 552 515Q557 505 563 496A8 8 73 0 0 564 494Q565 492 566 490L572 480A12 12-9 0 1 573 478Q577 474 580 468A8 8-10 0 1 581 467C582 465 585 464 586 462 589 459 591 456 593 453 598 449 602 444 607 439Q609 437 613 434 625 422 641 411A2 1-59 0 1 642 410Q643 410 651 411C655 412 660 414 664 414A0 0 0 0 1 664 415Q662 416 659 418 655 421 649 425 647 426 639 433C631 439 622 446 615 452Q611 456 608 458C603 462 598 467 593 472Z"></path><path fill="#d9cbb4" d="M512 485C510 494 508 503 506 514 506 517 505 520 504 522A0 0 0 0 1 503 522Q501 513 502 503 502 500 501 492 501 484 500 477C500 474 500 471 500 468Q500 451 501 443 502 430 503 418A1 1 0 0 1 504 417Q514 414 524 412 526 412 529 412A1 1 0 0 1 529 412Q529 417 527 422C524 431 523 440 520 449Q520 452 517 464C516 471 514 478 512 485Z"></path><path fill="#d9cbb4" d="M620 472Q616 474 612 476 608 480 605 481C601 485 598 487 594 490Q587 496 581 502C576 505 573 509 569 513A0 0-45 0 1 569 513L569 513A0 0 0 0 1 569 513Q574 507 580 498 582 496 588 489C591 485 595 482 598 479 600 477 602 474 605 472 609 469 612 464 615 462 620 459 624 456 629 452 634 449 637 445 642 443Q646 441 656 434C660 432 664 428 668 426 671 426 673 424 675 423 677 421 679 420 682 419 683 419 685 419 686 419Q691 422 696 422C701 423 704 424 709 425A0 0 0 0 1 709 425Q706 426 702 429C697 431 691 433 686 435Q680 437 672 442 670 443 664 445A10 10 17 0 0 662 446C658 449 654 450 651 453 648 455 642 457 639 459 636 461 633 463 630 465Q625 468 620 472Z"></path><path fill="#d9cbb4" d="M490 495Q490 500 489 504 488 513 488 514 489 518 488 524A0 0-76 0 1 488 525L488 525A1 1-81 0 1 487 524Q486 517 484 512C482 508 482 503 481 499Q479 492 477 485 475 476 473 469 472 461 472 461C471 456 469 450 468 445Q467 437 465 429A1 1-15 0 1 465 428L489 421A1 1 78 0 1 490 421Q490 427 490 436C490 444 491 453 491 460 491 465 490 471 490 476 490 481 489 488 490 495Z"></path><path fill="#d9cbb4" d="M470 503C470 509 471 514 472 519Q472 522 472 527A0 0-64 0 1 472 527Q469 524 468 520C467 517 465 514 464 511 460 504 456 498 453 491Q449 484 445 478C442 473 440 469 437 463Q436 460 432 455 428 449 425 443A1 1 0 0 1 426 443Q433 440 445 435 447 434 450 433A1 1 73 0 1 451 434C453 439 454 444 457 449Q461 456 462 465C463 472 464 476 466 482 468 489 468 496 470 503Z"></path><path fill="#d9cbb4" d="M440 487Q447 500 451 513C453 520 455 525 456 530Q456 531 456 531A0 0 0 0 1 456 531C453 527 451 524 448 520Q441 512 434 503 428 497 422 491 419 487 417 485C412 481 409 477 404 473Q401 470 398 467C394 463 389 461 386 457A1 1 0 0 1 386 456C389 455 392 454 396 453 402 452 406 450 411 448A1 1-29 0 1 412 448Q417 454 421 458C423 460 426 464 427 466 430 471 434 475 436 480Q438 483 440 487Z"></path><path fill="#d9cbb4" d="M423 503C425 507 428 511 430 514Q432 517 434 520 438 528 440 533A0 0 0 0 1 440 533Q439 533 437 531 434 528 430 524 426 520 423 517 411 507 393 496C392 495 389 493 388 492Q385 491 381 488C380 487 378 487 376 486Q374 484 371 483C368 481 366 480 363 478 359 475 354 475 350 472Q341 467 336 465A0 0 0 0 1 336 464Q339 464 341 464 349 463 358 462C361 461 368 460 371 461 376 465 380 466 385 469Q387 471 390 473C392 475 396 477 399 480Q410 489 412 491 418 497 423 503Z"></path><path fill="#eee6da" d="M629 477Q624 481 619 484 614 487 609 491 603 495 601 498C587 509 575 524 569 540Q566 548 564 558C559 577 559 598 560 617Q560 643 562 670 565 709 568 748C569 757 569 765 569 775 570 784 569 794 565 802 559 816 547 826 533 832Q517 839 498 837C474 835 448 822 440 798 438 792 437 784 436 777Q436 764 436 756C436 743 436 733 437 722 437 716 437 710 437 704 439 676 439 649 438 623Q438 602 438 602C437 585 436 570 431 554 427 540 420 529 408 519Q399 511 386 502 374 494 366 490L376 486C378 487 380 487 381 488Q385 491 388 492C389 493 392 495 393 496Q411 507 423 517 426 520 430 524 434 528 437 531 439 533 440 533A0 0 0 0 0 440 533Q438 528 434 520 432 517 430 514C428 511 425 507 423 503Q428 501 434 503 441 512 448 520C451 524 453 527 456 531A0 0 0 0 0 456 531Q456 531 456 530C455 525 453 520 451 513Q447 500 440 487 445 489 450 492C452 493 454 496 455 498Q459 505 464 511C465 514 467 517 468 520Q469 524 472 527A0 0-64 0 0 472 527Q472 522 472 519C471 514 470 509 470 503L468 489A1 1 0 0 1 468 488L477 485Q479 492 481 499C482 503 482 508 484 512Q486 517 487 524A1 1-81 0 0 488 525L488 525A0 0-76 0 0 488 524Q489 518 488 514 488 513 489 504 490 500 490 495 491 491 493 487C497 478 500 489 501 492Q502 500 502 503 501 513 503 522A0 0 0 0 0 504 522C505 520 506 517 506 514 508 503 510 494 512 485Q517 482 524 480 523 488 522 497C521 501 521 505 521 509Q520 513 520 519A0 0 0 0 0 521 519Q523 515 525 510C525 507 527 504 528 500 528 500 529 499 529 498Q530 495 533 492A3 3 74 0 0 533 492L538 480C541 477 545 476 549 478Q549 480 548 482 544 492 542 496C541 499 541 503 540 505Q540 507 538 510 537 513 536 517A0 0 0 0 0 537 517Q539 514 541 511C543 507 545 505 547 502Q552 494 556 488 561 487 566 490 565 492 564 494A8 8 73 0 1 563 496Q557 505 552 515A0 0 0 0 0 553 515L553 515A0 0-3 0 0 553 515Q562 505 563 503 565 500 568 497C570 495 573 492 576 489Q577 488 580 485 583 481 593 472 596 475 598 479C595 482 591 485 588 489Q582 496 580 498 574 507 569 513A0 0 0 0 0 569 513L569 513A0 0-45 0 0 569 513C573 509 576 505 581 502Q587 496 594 490C598 487 601 485 605 481Q608 480 612 476 616 474 620 472 625 473 629 477Z"></path></svg>