<svg xmlns="http://www.w3.org/2000/svg" viewBox="0 0 1000 1000"><path fill="#ab789b" d="M853 391Q849 390 848 390C843 391 839 390 835 390Q834 390 818 389 808 389 791 392 769 395 749 393 738 391 729 390C714 389 700 390 684 391 669 392 654 392 638 391Q624 389 619 390 605 390 601 390 587 392 580 393C571 393 562 394 552 393Q541 392 534 392 519 390 505 393 484 397 480 397 454 401 427 398 418 397 410 394 398 391 393 389 368 380 364 379 341 374 319 379 307 382 301 383 277 389 252 384 249 383 231 379 212 375 195 381C182 385 169 395 156 393Q151 392 145 391 132 376 130 354 129 344 129 336 130 315 136 293C149 244 175 197 210 160Q254 115 310 89 348 71 389 62C424 54 461 50 498 51 569 52 641 67 704 100Q765 133 806 186 843 234 862 295 864 301 867 316C870 333 871 352 866 370Q862 382 853 391ZM519 74Q516 69 510 68C497 65 482 64 469 67 467 68 464 69 463 71 461 77 471 80 475 80Q480 81 497 82C503 82 510 81 515 80Q519 79 519 75A3 3-57 0 0 519 74ZM626 92Q626 87 621 85 619 84 615 82C609 80 603 79 596 78 593 78 588 78 586 81 585 83 587 86 589 87Q594 93 603 95C610 96 617 98 624 95Q627 94 626 92ZM416 86C415 80 407 80 403 80Q390 79 381 87 379 89 380 92C380 96 386 97 390 97Q397 97 404 95C407 94 415 91 416 87A3 3-47 0 0 416 86ZM471 111Q477 111 483 110C488 108 496 107 495 101 494 94 477 94 471 95Q471 95 471 95 470 95 470 95C465 94 448 95 447 102 446 108 455 109 460 110Q466 111 471 111ZM527 101A18 4-170 0 0 544 108 18 4-170 0 0 562 107 18 4-170 0 0 545 100 18 4-170 0 0 527 101ZM310 112Q301 116 299 117C296 120 292 125 297 127 302 130 311 128 316 126Q324 122 326 121C330 118 333 113 328 111 323 108 314 110 310 112ZM358 134C359 137 363 139 366 139Q378 138 388 134C392 133 400 129 399 124 398 120 389 120 385 120Q374 121 364 126C360 127 357 130 358 134ZM675 126A18 8-161 0 0 690 139 18 8-161 0 0 709 138 18 8-161 0 0 695 124 18 8-161 0 0 675 126ZM539 141C545 143 551 144 556 141A2 2-85 0 0 557 140C560 135 556 131 552 130Q548 128 542 127 536 125 532 125C527 125 521 127 523 132A2 2-69 0 0 523 133C527 138 533 140 539 141ZM624 141A16 7-162 0 0 637 153 16 7-162 0 0 654 151 16 7-162 0 0 641 140 16 7-162 0 0 624 141ZM259 162Q261 166 265 166 271 166 280 164 286 162 290 156C293 153 292 149 287 149Q279 147 270 150C265 151 258 155 259 161A2 2-63 0 0 259 162Z"></path><path fill="#d5bdd4" d="M519 75Q519 79 515 80C510 81 503 82 497 82Q480 81 475 80C471 80 461 77 463 71 464 69 467 68 469 67 482 64 497 65 510 68Q516 69 519 74A3 3-57 0 1 519 75Z"></path><path fill="#d5bdd4" d="M626 92Q627 94 624 95C617 98 610 96 603 95Q594 93 589 87C587 86 585 83 586 81 588 78 593 78 596 78 603 79 609 80 615 82Q619 84 621 85 626 87 626 92Z"></path><path fill="#d5bdd4" d="M416 87C415 91 407 94 404 95Q397 97 390 97C386 97 380 96 380 92Q379 89 381 87 390 79 403 80C407 80 415 80 416 86A3 3-47 0 1 416 87Z"></path><path fill="#d5bdd4" d="M471 95Q471 95 471 95C477 94 494 94 495 101 496 107 488 108 483 110Q477 111 471 111 466 111 460 110C455 109 446 108 447 102 448 95 465 94 470 95Q470 95 471 95Z"></path><path fill="#d5bdd4" d="M527 101A18 4-170 0 1 545 100 18 4-170 0 1 562 107 18 4-170 0 1 544 108 18 4-170 0 1 527 101Z"></path><path fill="#d5bdd4" d="M310 112C314 110 323 108 328 111 333 113 330 118 326 121Q324 122 316 126C311 128 302 130 297 127 292 125 296 120 299 117Q301 116 310 112Z"></path><path fill="#d5bdd4" d="M399 124C400 129 392 133 388 134Q378 138 366 139C363 139 359 137 358 134 357 130 360 127 364 126Q374 121 385 120C389 120 398 120 399 124Z"></path><path fill="#d5bdd4" d="M675 126A18 8-161 0 1 695 124 18 8-161 0 1 709 138 18 8-161 0 1 690 139 18 8-161 0 1 675 126Z"></path><path fill="#d5bdd4" d="M542 127Q548 128 552 130C556 131 560 135 557 140A2 2-85 0 1 556 141C551 144 545 143 539 141 533 140 527 138 523 133A2 2-69 0 1 523 132C521 127 527 125 532 125Q536 125 542 127Z"></path><path fill="#d5bdd4" d="M624 141A16 7-162 0 1 641 140 16 7-162 0 1 654 151 16 7-162 0 1 637 153 16 7-162 0 1 624 141Z"></path><path fill="#d5bdd4" d="M259 161C258 155 265 151 270 150Q279 147 287 149C292 149 293 153 290 156Q286 162 280 164 271 166 265 166 261 166 259 162A2 2-63 0 1 259 161Z"></path><path fill="#d5bdd4" d="M853 391Q846 399 837 404 825 411 814 414 790 421 768 421 758 422 753 422 737 424 727 434 720 441 714 451 714 452 713 453 712 453 712 453 701 459 688 460 672 462 657 459C638 455 622 448 603 440Q566 425 527 428 517 429 496 432C481 434 469 436 457 436Q429 437 401 431 368 424 364 423 345 419 323 420C306 420 291 422 274 424Q260 422 255 422 240 421 230 421 211 421 192 417 175 413 159 404 151 399 145 391 151 392 156 393C169 395 182 385 195 381Q212 375 231 379 249 383 252 384 277 389 301 383 307 382 319 379 341 374 364 379 368 380 393 389 398 391 410 394 418 397 427 398 454 401 480 397 484 397 505 393 519 390 534 392 541 392 552 393C562 394 571 393 580 393Q587 392 601 390 605 390 619 390 624 389 638 391C654 392 669 392 684 391 700 390 714 389 729 390Q738 391 749 393 769 395 791 392 808 389 818 389 834 390 835 390C839 390 843 391 848 390Q849 390 853 391Z"></path><path fill="#eee6f0" d="M713 453Q713 454 713 455C701 483 710 519 734 538Q730 538 727 538C704 535 681 534 658 537 638 540 620 546 602 556 587 564 573 572 560 580Q542 589 523 595C502 602 478 605 455 607 404 610 353 607 304 595 293 593 281 589 272 586Q270 585 265 582A0 0 0 0 0 265 582Q265 583 265 584C263 576 266 567 271 560 274 557 277 554 281 550 304 525 312 485 301 454Q296 441 285 430 284 429 279 427C277 426 276 425 274 424 291 422 306 420 323 420Q345 419 364 423 368 424 401 431 429 437 457 436C469 436 481 434 496 432Q517 429 527 428 566 425 603 440C622 448 638 455 657 459Q672 462 688 460 701 459 712 453 712 453 713 453Z"></path><path fill="#e4d6e5" d="M734 538C741 541 748 549 746 557Q745 562 740 564C715 561 689 565 664 572 656 575 650 576 645 578 623 586 609 592 580 603Q560 611 541 617 502 630 462 633 398 637 334 624 309 619 289 611 281 608 273 602C269 596 265 591 265 584Q265 583 265 582A0 0 0 0 1 265 582Q270 585 272 586C281 589 293 593 304 595 353 607 404 610 455 607 478 605 502 602 523 595Q542 589 560 580C573 572 587 564 602 556 620 546 638 540 658 537 681 534 704 535 727 538Q730 538 734 538Z"></path><path fill="#f2ebee" d="M740 564C738 587 754 606 767 625Q770 630 775 639 779 647 781 654 789 676 791 699 791 704 792 719 792 726 792 730 788 731 787 735 785 740 785 740C775 760 753 767 732 767Q719 766 706 764C696 763 688 761 680 761Q657 759 638 772C629 777 622 783 611 787 597 793 580 790 565 785Q548 780 547 780 527 774 508 779C499 781 487 787 480 789 454 797 427 790 402 782 390 777 377 771 364 764 355 759 345 758 334 759 319 761 304 762 291 756Q275 749 266 736 259 725 256 711 255 709 254 706 254 675 262 645 267 623 273 602 281 608 289 611 309 619 334 624 398 637 462 633 502 630 541 617 560 611 580 603C609 592 623 586 645 578 650 576 656 575 664 572 689 565 715 561 740 564Z"></path><path fill="#eee5e3" d="M792 730Q791 759 782 786 776 805 763 827 746 856 725 882 717 890 705 901C688 915 666 925 644 932Q617 940 591 943C549 949 508 950 466 945Q435 942 405 932 387 926 368 916C327 893 295 856 275 814Q252 763 254 706 255 709 256 711 259 725 266 736 275 749 291 756C304 762 319 761 334 759 345 758 355 759 364 764 377 771 390 777 402 782 427 790 454 797 480 789 487 787 499 781 508 779Q527 774 547 780 548 780 565 785C580 790 597 793 611 787 622 783 629 777 638 772Q657 759 680 761C688 761 696 763 706 764Q719 766 732 767C753 767 775 760 785 740Q785 740 787 735 788 731 792 730Z"></path></svg>