<svg xmlns="http://www.w3.org/2000/svg" viewBox="0 0 1000 1000"><path fill="#a28982" d="M828 304Q831 290 825 279C823 276 819 272 817 270Q815 268 812 266 802 259 792 255 776 249 761 245C735 238 709 239 682 238Q663 238 644 234 631 231 615 226 599 222 587 220C565 217 544 218 521 220Q493 223 466 221C450 220 432 216 416 215Q392 214 367 218 357 220 356 220 317 229 311 230C305 231 300 232 294 232Q282 234 262 236C241 239 220 244 201 253Q185 261 175 275C172 279 170 286 170 291Q170 296 171 301A0 0-14 0 1 171 301Q171 301 171 301 165 291 163 282 161 271 162 258C166 220 186 185 211 159Q242 126 282 104 293 98 301 94C352 69 410 56 467 53Q516 50 564 58C634 70 698 96 755 137 777 153 798 171 813 192Q817 198 822 208C834 228 839 252 838 275Q836 290 828 304ZM340 102C337 106 335 113 342 116Q347 118 352 118C368 118 383 115 398 108 405 106 422 95 412 87A3 3 76 0 0 411 87Q405 84 398 84 384 84 370 88 360 91 354 93 349 96 341 101A3 3 3 0 0 340 102ZM263 139C260 142 255 150 260 153 267 159 288 149 296 145Q304 141 309 137 310 136 314 133 318 129 318 128C320 125 320 120 318 118 315 116 309 117 306 117Q303 117 299 119 279 125 263 139Z"></path><path fill="#bfaca8" d="M341 101Q349 96 354 93 360 91 370 88 384 84 398 84 405 84 411 87A3 3 76 0 1 412 87C422 95 405 106 398 108 383 115 368 118 352 118Q347 118 342 116C335 113 337 106 340 102A3 3 3 0 1 341 101Z"></path><path fill="#bfaca8" d="M263 139Q279 125 299 119 303 117 306 117C309 117 315 116 318 118 320 120 320 125 318 128Q318 129 314 133 310 136 309 137 304 141 296 145C288 149 267 159 260 153 255 150 260 142 263 139Z"></path><path fill="#e3cdc5" d="M828 304Q819 318 803 328L803 328A0 0 0 0 1 803 327C809 322 813 315 813 307Q813 304 812 301C809 292 801 286 793 280Q787 277 776 272 771 270 760 268C735 261 708 261 681 259Q658 258 635 253 629 251 617 248 606 245 598 243 589 241 577 240C567 240 558 240 548 241Q543 241 516 244C503 245 491 245 478 244 474 244 465 243 458 242Q437 239 433 239C412 237 392 237 372 240Q359 242 350 244 307 253 267 259 245 263 227 269 219 272 211 276 202 281 195 288 186 297 187 310C187 314 189 317 192 322Q194 326 198 329A0 0 0 0 1 198 329Q198 329 198 329C194 326 189 323 185 320Q177 312 171 302 171 302 171 301 171 301 171 301A0 0-14 0 0 171 301Q170 296 170 291C170 286 172 279 175 275Q185 261 201 253C220 244 241 239 262 236Q282 234 294 232C300 232 305 231 311 230Q317 229 356 220 357 220 367 218 392 214 416 215C432 216 450 220 466 221Q493 223 521 220C544 218 565 217 587 220Q599 222 615 226 631 231 644 234 663 238 682 238C709 239 735 238 761 245Q776 249 792 255 802 259 812 266 815 268 817 270C819 272 823 276 825 279Q831 290 828 304Z"></path><path fill="#f9efe7" d="M803 328Q801 330 798 331C786 338 778 341 767 344Q764 345 760 345C771 340 783 335 790 325Q795 318 794 309 793 308 791 304 786 297 777 294 773 291 768 289 752 284 736 281 725 279 715 279L708 278 670 274Q663 274 654 272L637 269 622 266 606 262 590 259 578 258 568 257Q561 257 555 257 549 258 545 258L531 259 510 261Q507 261 504 261 501 261 498 261 492 261 486 261L477 261 471 260Q467 260 463 260A4 4 50 0 1 462 260Q455 258 448 258L436 257 423 256 406 255 390 256 379 257 361 259 349 262 338 264 321 267 310 269 292 273 271 276 255 279Q243 283 238 284 235 285 231 287L222 291Q217 294 212 298 207 302 205 308 203 313 205 319 207 327 212 331 219 337 228 341 232 343 237 345 229 344 223 342 214 338 205 333 201 332 198 329 198 329 198 329A0 0 0 0 0 198 329Q194 326 192 322C189 317 187 314 187 310Q186 297 195 288 202 281 211 276 219 272 227 269 245 263 267 259 307 253 350 244 359 242 372 240C392 237 412 237 433 239Q437 239 458 242C465 243 474 244 478 244 491 245 503 245 516 244Q543 241 548 241C558 240 567 240 577 240Q589 241 598 243 606 245 617 248 629 251 635 253 658 258 681 259C708 261 735 261 760 268Q771 270 776 272 787 277 793 280C801 286 809 292 812 301Q813 304 813 307C813 315 809 322 803 327A0 0 0 0 0 803 328L803 328Z"></path><path fill="#c8b5a6" d="M423 256Q422 256 422 256A0 0-30 0 0 421 257L424 261Q416 258 409 259L406 255 423 256Z"></path><path fill="#968070" d="M406 255 409 259 415 268C416 270 417 272 418 274Q420 277 424 284 428 292 432 302 435 312 438 322L438 323A0 0 0 0 1 437 323C435 318 432 311 429 306 425 302 423 297 419 292Q416 287 410 279C409 276 405 274 403 271Q400 267 394 261 392 259 390 256L406 255Z"></path><path fill="#ae9888" d="M423 256 436 257 434 257A0 0 0 0 0 434 258C436 260 438 263 440 267 442 272 446 277 448 283 449 285 451 289 452 291Q456 302 461 317 463 324 464 332A0 0 0 0 0 465 332L465 329Q465 340 464 350L464 350Q464 350 464 350 464 346 463 343 463 338 462 335 458 320 451 303 449 299 447 295C444 291 442 288 438 284L431 271A4 3 58 0 0 431 271L424 261 421 257A0 0-30 0 1 422 256Q422 256 423 256Z"></path><path fill="#ae9888" d="M390 256Q392 259 394 261 400 267 403 271C405 274 409 276 410 279Q416 287 419 292C423 297 425 302 429 306 432 311 435 318 437 323A0 0 0 0 0 438 323L438 322 440 334Q436 328 433 322 431 317 426 314A0 0 0 0 0 426 314Q427 316 426 318 423 313 421 309 417 304 414 299C408 290 402 281 394 273 391 270 387 267 384 263Q380 260 379 257L390 256Z"></path><path fill="#968070" d="M436 257 448 258 452 259A1 1-5 0 1 453 260L457 271Q458 274 458 276 461 287 463 302 464 312 465 329L465 332A0 0 0 0 1 464 332Q463 324 461 317 456 302 452 291C451 289 449 285 448 283 446 277 442 272 440 267 438 263 436 260 434 258A0 0 0 0 1 434 257L436 257Z"></path><path fill="#c8b5a6" d="M379 257Q380 260 384 263 376 261 368 263L364 260A1 1-24 0 0 364 260L361 259 379 257Z"></path><path fill="#c8b5a6" d="M568 257 561 257A2 2 15 0 0 559 258L556 265Q557 261 554 261 549 261 542 263L545 258Q549 258 555 257 561 257 568 257Z"></path><path fill="#968070" d="M568 257 578 258Q573 264 568 270 561 278 559 281 552 291 545 303 542 309 539 319 535 330 533 337A0 0 0 0 1 533 337Q533 336 533 334L535 319 538 307Q540 297 544 288 547 282 549 276 552 270 556 265L559 258A2 2 15 0 1 561 257L568 257Z"></path><path fill="#ae9888" d="M545 258 542 263Q538 268 537 271 534 277 531 282 528 288 524 300 521 301 520 303 517 311 515 315C514 320 512 323 511 328A1 1-71 0 1 510 329Q510 329 510 328L509 325 510 328A0 0 46 0 0 511 328Q513 315 515 303 517 294 519 287 523 278 525 271 526 270 528 267A12 12-17 0 0 529 265L531 259 545 258Z"></path><path fill="#dccabc" d="M471 260 468 261A0 0 0 0 0 468 261Q467 263 468 264C469 266 469 267 469 268 472 273 473 278 474 284Q476 290 477 295L479 301Q474 300 469 301 467 289 465 283 463 276 458 270A0 0-36 0 0 457 270Q457 270 457 271L453 260A1 1-5 0 0 452 259L448 258Q455 258 462 260A4 4 50 0 0 463 260Q467 260 471 260Z"></path><path fill="#ae9888" d="M578 258 590 259Q592 260 590 262 590 262 588 264 585 267 582 270 578 274 574 278 571 281 568 285C563 291 558 297 554 304 553 302 554 299 555 297A0 0 0 0 0 555 297C549 304 545 311 541 322Q539 326 539 326C538 328 536 331 535 334Q534 337 534 339A1 1 18 0 1 533 339Q533 339 532 339L533 334Q533 336 533 337A0 0 0 0 0 533 337Q535 330 539 319 542 309 545 303 552 291 559 281 561 278 568 270 573 264 578 258Z"></path><path fill="#dccabc" d="M424 261 431 271A4 3 58 0 1 431 271L438 284C440 288 442 292 444 297Q448 305 452 313 445 310 440 306 437 298 433 290 431 286 429 282 426 277 424 274 420 270 415 268L409 259Q416 258 424 261Z"></path><path fill="#968070" d="M531 259 529 265A12 12-17 0 1 528 267Q526 270 525 271 523 278 519 287 517 294 515 303 513 315 511 328A0 0 46 0 1 510 328L509 325 509 296 510 278 510 261 531 259Z"></path><path fill="#c8b5a6" d="M606 262Q603 264 600 267 591 261 582 270 585 267 588 264 590 262 590 262 592 260 590 259L606 262Z"></path><path fill="#968070" d="M361 259 364 260A1 1-24 0 1 364 260L368 263 381 274Q399 293 411 316 411 317 411 318A0 0-56 0 1 411 318L405 310A8 8 4 0 0 404 309Q400 305 398 302C393 297 388 292 382 287Q369 274 353 265 351 264 349 262L361 259Z"></path><path fill="#ae9888" d="M477 261Q477 263 478 265 479 268 479 270 480 274 481 277C482 281 482 282 483 286 484 291 485 297 485 302Q486 306 487 313 487 320 488 324 488 325 488 327A0 0 0 0 0 489 327L489 327 488 341 488 345A0 0-58 0 1 487 345Q487 345 487 345 486 336 484 327L483 321C485 316 484 311 482 305 481 302 479 299 477 295Q476 290 474 284C473 278 472 273 469 268 469 267 469 266 468 264Q467 263 468 261A0 0 0 0 1 468 261L471 260 477 261Z"></path><path fill="#968070" d="M486 261 492 261A0 0 87 0 1 492 261L493 265 492 273 489 327 489 327A0 0 0 0 1 488 327Q488 325 488 324 487 320 487 313 486 306 485 302C485 297 484 291 483 286 482 282 482 281 481 277Q480 274 479 270 479 268 478 265 477 263 477 261L486 261Z"></path><path fill="#c8b5a6" d="M510 261 510 278 509 265A0 0 0 0 0 509 264C504 264 498 263 493 265L492 261A0 0 87 0 0 492 261L486 261Q492 261 498 261 501 261 504 261 507 261 510 261Z"></path><path fill="#dccabc" d="M556 265Q552 270 549 276 547 282 544 288 547 280 547 272A1 1 67 0 0 546 272C541 277 540 281 537 289 534 297 531 305 530 313A0 0 74 0 0 531 313L538 307 535 319Q526 321 516 322L524 300Q528 288 531 282 534 277 537 271 538 268 542 263 549 261 554 261 557 261 556 265Z"></path><path fill="#dccabc" d="M384 263C387 267 391 270 394 273 402 281 408 290 414 299Q417 304 421 309 423 313 426 318L429 323 413 317A1 1 4 0 1 412 316C411 312 410 308 408 304 405 297 401 292 395 284 393 282 390 279 387 276Q384 274 381 274L368 263Q376 261 384 263Z"></path><path fill="#a28982" d="M349 262Q351 264 353 265 369 274 382 287C383 294 386 299 389 305A0 0-34 0 1 389 305 0 0-34 0 1 389 305Q388 303 386 302 373 289 360 279 353 274 341 268L337 265A0 0 0 0 1 337 264Q338 264 338 264L349 262Z"></path><path fill="#968070" d="M606 262 622 266Q617 270 612 273 604 277 601 279 593 285 585 293 581 297 578 301 572 307 571 309 565 317 560 327L557 333A0 0 0 0 1 557 333L557 333 557 331Q561 320 564 314 576 292 593 274L600 267Q603 264 606 262Z"></path><path fill="#c8b5a6" d="M338 264Q338 264 337 264A0 0 0 0 0 337 265L341 268C337 268 331 268 328 270 325 269 324 267 321 267L338 264Z"></path><path fill="#dccabc" d="M510 278 509 296 508 289A0 0 0 0 0 508 289Q508 289 508 290A1 1 0 0 1 507 290Q507 290 506 290A1 1 30 0 0 505 290C503 295 502 298 497 300A1 1 0 0 1 497 299C496 292 495 286 495 280Q494 276 492 273L493 265C498 263 504 264 509 264A0 0 0 0 1 509 265L510 278Z"></path><path fill="#dccabc" d="M600 267 593 274Q592 273 590 274 588 276 587 277 580 280 576 287 569 297 565 304 562 309 562 316A1 1-3 0 1 561 316L546 318 554 304C558 297 563 291 568 285Q571 281 574 278 578 274 582 270 591 261 600 267Z"></path><path fill="#ae9888" d="M637 269Q634 272 630 273 627 274 626 275C623 277 620 279 616 281Q597 293 581 308 579 311 577 313 580 308 583 303A1 1 87 0 0 582 302Q579 305 575 309C570 314 565 321 560 327Q565 317 571 309 572 307 578 301 581 297 585 293 593 285 601 279 604 277 612 273 617 270 622 266L637 269Z"></path><path fill="#edded1" d="M440 306Q441 311 440 313C440 314 438 316 438 318Q438 320 439 322A1 1 0 0 0 440 323L457 329 463 343Q464 346 464 350 464 350 464 350L464 350Q465 340 465 329 464 312 463 302 461 287 458 276 458 274 457 271 457 270 457 270A0 0-36 0 1 458 270Q463 276 465 283 467 289 469 301L470 309A1 1 0 0 1 470 310L465 312A0 0 0 0 0 465 312Q474 321 484 327 486 336 487 345 487 345 487 345A0 0-58 0 0 488 345L488 341Q488 342 488 342A0 0-20 0 0 489 342C495 338 501 336 509 337L510 346A0 0 0 0 0 510 346L511 346A0 0 0 0 0 511 346C512 337 513 330 516 322Q526 321 535 319L533 334 532 339 532 351A0 0 0 0 0 532 351L533 350Q535 345 537 342C541 337 547 336 552 334Q554 333 557 331L557 333Q556 333 556 334 553 344 551 355 551 356 551 356A0 0 0 0 0 551 356Q555 346 560 337L586 325 581 332 577 340Q571 350 567 363A0 0 0 0 0 568 363C569 361 570 359 571 357Q575 350 580 343 589 342 597 345 592 350 592 351 587 359 583 367A0 0 0 0 0 583 367L583 367A0 0 0 0 0 583 367Q587 361 592 356 596 352 598 349 598 348 599 348 600 348 601 347A1 1-73 0 1 601 346C605 346 608 350 609 354L607 355 601 362A1 1 0 0 0 602 363L609 362Q606 362 603 363 601 363 599 365 588 377 586 393 585 406 588 417 589 420 593 427 580 423 574 410 572 405 569 395 565 383 554 375C552 373 546 369 542 367 516 356 485 355 458 366 445 372 432 383 427 397 426 403 424 408 420 414Q415 424 405 428 414 414 413 398 413 389 411 383C409 376 404 369 399 363 398 362 396 363 394 362L398 362A0 0-22 0 0 398 361L392 355 381 346Q381 347 380 345L377 342 381 338C385 340 388 344 390 346Q395 350 399 355A0 0 0 0 0 399 355L399 355A0 0-31 0 0 399 354Q396 350 393 346C390 342 386 339 383 335Q391 339 399 340L413 359A0 0-64 0 0 413 359Q413 358 413 357 409 350 406 344 403 338 399 333 393 323 385 314 387 315 389 317 391 320 394 323 400 329 409 329L422 348A6 4 51 0 1 422 349L426 356A0 0 0 0 0 427 356L419 335 417 330C423 335 429 336 436 336L443 353A0 0 0 0 0 443 353Q444 352 444 352 442 342 440 334L438 322Q435 312 432 302 428 292 424 284 420 277 418 274C417 272 416 270 415 268Q420 270 424 274 426 277 429 282 431 286 433 290 437 298 440 306Z"></path><path fill="#968070" d="M321 267C324 267 325 269 328 270Q332 272 337 275 341 277 344 279 357 288 365 295 374 302 384 314 383 314 382 312 380 311 380 311 375 307 370 303C363 298 354 292 349 289 344 285 337 283 332 280A23 23 69 0 0 327 278Q323 276 312 271 310 271 310 269L321 267Z"></path><path fill="#dccabc" d="M341 268Q353 274 360 279 373 289 386 302 393 309 399 316C401 318 403 320 404 323Q407 326 409 329 400 329 394 323 391 320 389 317 387 315 385 314L384 314Q374 302 365 295 357 288 344 279 341 277 337 275 332 272 328 270C331 268 337 268 341 268Z"></path><path fill="#ae9888" d="M310 269Q310 271 312 271 323 276 327 278A23 23 69 0 1 332 280C337 283 344 285 349 289 354 292 363 298 370 303Q375 307 380 311 380 311 382 312 383 314 384 314L385 314Q393 323 399 333 393 330 388 325 384 320 384 320 376 311 365 305 363 304 361 306 354 301 346 296 343 294 331 288C325 285 319 283 313 281Q311 279 307 278 304 277 301 276 296 275 292 273L310 269Z"></path><path fill="#dccabc" d="M654 272Q647 275 639 279 634 281 629 285 622 289 620 291 601 305 586 325L560 337Q562 334 564 330 566 327 577 313 579 311 581 308 597 293 616 281C620 279 623 277 626 275Q627 274 630 273 634 272 637 269L654 272Z"></path><path fill="#e3cdc5" d="M593 274Q576 292 564 314 561 320 557 331 554 333 552 334C547 336 541 337 537 342Q535 345 533 350C536 339 540 328 546 318L561 316A1 1-3 0 0 562 316Q562 309 565 304 569 297 576 287 580 280 587 277 588 276 590 274 592 273 593 274Z"></path><path fill="#edded1" d="M544 288Q540 297 538 307L531 313A0 0 74 0 1 530 313C531 305 534 297 537 289 540 281 541 277 546 272A1 1 67 0 1 547 272Q547 280 544 288Z"></path><path fill="#e3cdc5" d="M509 296 509 325 510 328 509 337C501 336 495 338 489 342A0 0-20 0 1 488 342Q488 342 488 341L489 327 492 273Q494 276 495 280C495 286 496 292 497 299A1 1 0 0 0 497 300C502 298 503 295 505 290A1 1 30 0 1 506 290Q507 290 507 290A1 1 0 0 0 508 290Q508 289 508 289A0 0 0 0 1 508 289L509 296Z"></path><path fill="#968070" d="M654 272Q663 274 670 274 672 275 672 275A0 0 0 0 1 672 275Q669 276 665 277C661 279 655 281 651 282 648 283 646 285 643 286Q643 286 638 288 630 292 626 294 622 297 611 304C605 308 601 312 595 317Q587 325 582 333A1 1 0 0 1 582 333Q582 333 582 333A0 0 0 0 1 581 333Q581 333 581 332L586 325Q601 305 620 291 622 289 629 285 634 281 639 279 647 275 654 272Z"></path><path fill="#c8b5a6" d="M292 273Q296 275 301 276 294 276 286 276 283 276 281 278 278 277 276 276 274 276 271 276L292 273Z"></path><path fill="#e3cdc5" d="M429 323 436 336C429 336 423 335 417 330L411 316Q399 293 381 274 384 274 387 276C390 279 393 282 395 284 401 292 405 297 408 304 410 308 411 312 412 316A1 1 4 0 0 413 317L429 323Z"></path><path fill="#ae9888" d="M708 278 709 278A0 0 0 0 1 709 279Q703 279 697 278 694 278 692 278 683 280 674 283C672 283 670 284 669 285 665 286 660 287 658 289 652 291 648 293 642 296Q637 298 633 300 622 306 610 314 610 313 611 311A1 1-38 0 0 611 311Q611 310 610 310A0 0 0 0 0 610 310Q605 314 600 318C598 318 597 320 596 320Q590 327 584 335C583 337 580 341 577 340L581 332Q581 333 581 333A0 0 0 0 0 582 333Q582 333 582 333A1 1 0 0 0 582 333Q587 325 595 317C601 312 605 308 611 304Q622 297 626 294 630 292 638 288 643 286 643 286C646 285 648 283 651 282 655 281 661 279 665 277Q669 276 672 275A0 0 0 0 0 672 275Q672 275 670 274L708 278Z"></path><path fill="#dccabc" d="M301 276Q304 277 307 278 311 279 313 281C319 283 325 285 331 288Q343 294 346 296 354 301 361 306 364 308 367 310 370 312 373 314 376 317 379 320L369 322Q363 317 355 312 346 305 337 300 334 299 332 297C327 295 323 293 317 290Q314 289 307 286C301 284 295 281 288 280Q285 279 281 278 283 276 286 276 294 276 301 276Z"></path><path fill="#968070" d="M281 278Q285 279 288 280C295 281 301 284 307 286Q314 289 317 290C323 293 327 295 332 297Q334 299 337 300 346 305 355 312C350 310 345 308 340 305Q335 302 331 301 318 295 309 293C304 291 300 290 296 289 291 287 285 286 280 285Q271 282 260 281 258 281 255 279L271 276Q274 276 276 276 278 277 281 278Z"></path><path fill="#dccabc" d="M715 279Q712 280 705 282 696 283 677 290C671 292 668 294 662 296Q658 298 651 302 632 312 615 326L590 332Q591 331 594 328 603 320 610 314 622 306 633 300 637 298 642 296C648 293 652 291 658 289 660 287 665 286 669 285 670 284 672 283 674 283Q683 280 692 278 694 278 697 278 703 279 709 279A0 0 0 0 0 709 278L708 278 715 279Z"></path><path fill="#968070" d="M715 279Q725 279 736 281 732 283 730 283C716 286 705 287 692 291Q686 292 684 293C681 295 677 296 674 297Q666 299 661 301 658 303 654 305 650 306 644 309 625 320 609 332L615 326Q632 312 651 302 658 298 662 296C668 294 671 292 677 290Q696 283 705 282 712 280 715 279Z"></path><path fill="#a28982" d="M255 279Q258 281 260 281 271 282 280 285 274 285 269 289 269 290 266 290C262 290 258 290 254 289 250 289 247 288 243 288L231 287Q235 285 238 284 243 283 255 279Z"></path><path fill="#a28982" d="M768 289 770 291A0 0 0 0 1 770 291L770 291A0 0 0 0 1 769 291Q763 289 758 289 747 290 744 290C740 290 737 290 733 291 727 291 721 293 715 294Q711 292 709 292 700 293 692 291C705 287 716 286 730 283Q732 283 736 281 752 284 768 289Z"></path><path fill="#ae9888" d="M280 285C285 286 291 287 296 289 300 290 304 291 309 293Q318 295 331 301 335 302 340 305C345 308 350 310 355 312Q363 317 369 322L383 335C386 339 390 342 393 346Q396 350 399 354A0 0-31 0 1 399 355L399 355A0 0 0 0 1 399 355Q395 350 390 346C388 344 385 340 381 338Q372 331 362 324C358 322 355 320 351 318Q349 317 342 314 330 308 328 307 315 302 299 297C293 296 288 295 282 293 277 292 271 291 266 290Q269 290 269 289 274 285 280 285Z"></path><path fill="#c8b5a6" d="M463 343 457 329 452 313Q448 305 444 297C442 292 440 288 438 284 442 288 444 291 447 295Q449 299 451 303 458 320 462 335 463 338 463 343Z"></path><path fill="#c8b5a6" d="M231 287 243 288Q236 288 230 290 229 291 229 291A0 0 0 0 0 229 291L235 292 222 291 231 287Z"></path><path fill="#ae9888" d="M411 316 417 330 419 335Q419 336 418 335 412 325 405 316 403 313 400 311A1 1 0 0 0 399 312Q400 314 399 316 393 309 386 302 388 303 389 305A0 0-34 0 0 389 305 0 0-34 0 0 389 305C386 299 383 294 382 287 388 292 393 297 398 302Q400 305 404 309A8 8 4 0 1 405 310L411 318A0 0-56 0 0 411 318Q411 317 411 316Z"></path><path fill="#dccabc" d="M266 290C271 291 277 292 282 293 288 295 293 296 299 297Q315 302 328 307 330 308 342 314 349 317 351 318C355 320 358 322 362 324Q372 331 381 338L377 342 370 337 367 336 356 329Q354 327 353 327L340 320 333 317 321 313Q317 310 313 310 311 308 308 308 287 301 268 298C265 297 262 297 259 296Q249 294 244 293 237 293 235 292L229 291A0 0 0 0 1 229 291Q229 291 230 290 236 288 243 288C247 288 250 289 254 289 258 290 262 290 266 290Z"></path><path fill="#dccabc" d="M768 289Q773 291 777 294 770 294 762 294 757 294 754 294C747 295 742 295 734 297Q728 298 718 300 707 301 688 308 682 310 677 313 671 314 666 317 664 317 662 319 660 319 657 321 651 323 644 328L640 330 631 336 628 338 624 341C620 338 615 336 611 339Q609 340 606 342 610 338 613 336 626 327 641 318 652 313 658 311 664 309 666 308 672 305 674 305 677 304 682 302 684 301 689 300 702 296 715 294C721 293 727 291 733 291 737 290 740 290 744 290Q747 290 758 289 763 289 769 291A0 0 0 0 0 770 291L770 291A0 0 0 0 0 770 291L768 289Z"></path><path fill="#ae9888" d="M692 291Q700 293 709 292 711 292 715 294 702 296 689 300 684 301 682 302 677 304 674 305 672 305 666 308 664 309 658 311 652 313 641 318C632 320 623 325 616 331 609 337 605 340 600 347L599 348Q598 348 598 349 596 352 592 356 587 361 583 367A0 0 0 0 1 583 367L583 367A0 0 0 0 1 583 367Q587 359 592 351 592 350 597 345 602 337 609 332 625 320 644 309 650 306 654 305 658 303 661 301 666 299 674 297C677 296 681 295 684 293Q686 292 692 291Z"></path><path fill="#968070" d="M222 291 235 292Q237 293 244 293 249 294 259 296C262 297 265 297 268 298Q287 301 308 308 311 308 313 310 307 309 301 309C297 309 293 308 288 309Q285 309 279 309 276 309 270 310 257 312 250 314 241 317 231 321 224 324 217 321 208 318 205 308 207 302 212 298 217 294 222 291Z"></path><path fill="#968070" d="M777 294Q786 297 791 304 791 308 790 310 787 317 781 320 777 322 772 322 766 322 762 321 752 317 744 315 733 312 732 312 727 311 720 310 709 309 700 309 697 309 693 309 693 309 693 309L688 309A0 0 0 0 1 688 308L688 308Q707 301 718 300 728 298 734 297C742 295 747 295 754 294Q757 294 762 294 770 294 777 294Z"></path><path fill="#c8b5a6" d="M483 321 479 301 477 295C479 299 481 302 482 305 484 311 485 316 483 321Z"></path><path fill="#c8b5a6" d="M554 304 546 318C540 328 536 339 533 350L532 351A0 0 0 0 1 532 351L532 339Q533 339 533 339A1 1 18 0 0 534 339Q534 337 535 334C536 331 538 328 539 326Q539 326 541 322C545 311 549 304 555 297A0 0 0 0 1 555 297C554 299 553 302 554 304Z"></path><path fill="#e3cdc5" d="M479 301 483 321 484 327Q474 321 465 312A0 0 0 0 1 465 312L470 310A1 1 0 0 0 470 309L469 301Q474 300 479 301Z"></path><path fill="#c8b5a6" d="M524 300 516 322C513 330 512 337 511 346A0 0 0 0 1 511 346L510 346A0 0 0 0 1 510 346L509 337 510 328Q510 329 510 329A1 1-71 0 0 511 328C512 323 514 320 515 315Q517 311 520 303 521 301 524 300Z"></path><path fill="#c8b5a6" d="M577 313Q566 327 564 330 562 334 560 337 555 346 551 356A0 0 0 0 1 551 356Q551 356 551 355 553 344 556 334 556 333 557 333L557 333A0 0 0 0 0 557 333L560 327C565 321 570 314 575 309Q579 305 582 302A1 1 87 0 1 583 303Q580 308 577 313Z"></path><path fill="#c8b5a6" d="M399 333Q403 338 406 344 409 350 413 357 413 358 413 359A0 0-64 0 1 413 359L399 340Q390 329 379 320 376 317 373 314 370 312 367 310 364 308 361 306 363 304 365 305 376 311 384 320 384 320 388 325 393 330 399 333Z"></path><path fill="#c8b5a6" d="M760 345C754 347 748 349 743 350Q731 353 716 355C710 356 704 356 697 357Q691 357 684 358C678 358 673 359 667 359Q661 359 651 359C647 359 643 359 639 359Q628 360 617 361C615 361 611 361 609 362L602 363A1 1 0 0 1 601 362L607 355Q611 356 614 356C620 357 624 356 629 355A1 1 0 0 0 630 354Q629 353 629 353 624 348 617 347L619 345Q624 346 628 349 632 352 635 354A3 3 66 0 0 636 354Q641 355 647 355C651 355 655 353 652 349Q650 347 645 343 637 338 628 338L631 336Q631 337 631 337 645 337 655 347 657 349 658 350C663 356 676 354 683 352Q684 352 685 351A1 1-21 0 0 686 351C686 347 682 344 679 342Q675 339 672 337C666 334 659 332 652 331 648 330 644 330 640 330L644 328Q647 329 653 329 661 329 670 332C673 334 680 336 683 339Q692 347 695 348 699 350 703 350 710 350 715 350 719 350 723 347C727 345 723 340 721 339 715 334 708 330 701 327 693 325 684 322 675 322 669 321 665 321 657 321Q660 319 662 319L675 318A1 0-21 0 1 675 318L685 320A0 0 52 0 0 685 320Q692 321 698 323 703 324 714 329 720 332 725 337C727 338 729 339 730 340 735 344 741 344 746 343Q751 342 755 340 760 338 763 335 763 331 759 328 757 326 752 324 744 320 734 317 732 316 729 316C724 315 719 314 715 313Q696 311 677 313 682 310 688 308L688 308A0 0 0 0 0 688 309L693 309Q693 309 693 309 697 309 700 309 709 309 720 310 727 311 732 312 733 312 744 315 752 317 762 321 766 322 772 322 777 322 781 320 787 317 790 310 791 308 791 304 793 308 794 309 795 318 790 325C783 335 771 340 760 345Z"></path><path fill="#e3cdc5" d="M452 313 457 329 440 323A1 1 0 0 1 439 322Q438 320 438 318C438 316 440 314 440 313Q441 311 440 306 445 310 452 313Z"></path><path fill="#c8b5a6" d="M205 308Q208 318 217 321 224 324 231 321 241 317 250 314 257 312 270 310 276 309 279 309 285 309 288 309C293 308 297 309 301 309Q307 309 313 310 317 310 321 313 317 313 313 312C309 312 306 312 303 312 298 311 294 312 289 312Q285 312 281 312 273 314 270 314 254 317 240 324 238 325 235 328C232 330 230 334 233 336Q236 338 241 340C248 343 256 345 263 342A3 3-72 0 0 264 342Q266 340 269 338C271 337 272 335 274 333A5 5-82 0 1 275 333Q282 328 290 324C293 323 297 322 300 321Q303 320 307 319 318 317 324 317 330 317 333 317L340 320C334 320 328 320 323 320 319 320 315 320 311 322Q302 324 301 324 286 329 275 340 273 342 273 346A2 2-78 0 0 274 347C278 349 281 350 286 350 291 350 297 351 301 349Q304 348 308 345 313 341 317 338 318 336 320 336 326 332 334 329C340 327 346 327 353 327Q354 327 356 329C352 329 347 329 344 330 338 331 332 333 327 336Q324 338 318 342 315 345 314 347C313 349 313 352 316 352Q320 353 323 353C328 354 337 354 341 351Q343 349 347 344A6 6 4 0 1 348 343Q350 342 351 341A4 4 10 0 1 352 340L357 338 362 337A0 0 56 0 1 363 337Q363 338 363 339 354 341 349 348C348 349 347 353 350 354Q357 356 364 354A8 8 19 0 0 367 353Q371 350 375 347 377 346 380 345 381 347 381 346C378 348 373 351 371 354A1 1 0 0 0 372 355L385 356A2 1 39 0 0 385 356L392 355 398 361A0 0-22 0 1 398 362L394 362C390 362 385 361 380 361Q370 360 338 359 331 359 322 358C309 358 295 357 285 356 275 355 266 353 256 351Q246 349 237 345 232 343 228 341 219 337 212 331 207 327 205 319 203 313 205 308Z"></path><path fill="#c8b5a6" d="M610 314Q603 320 594 328 591 331 590 332L580 343Q575 350 571 357C570 359 569 361 568 363A0 0 0 0 1 567 363Q571 350 577 340C580 341 583 337 584 335Q590 327 596 320C597 320 598 318 600 318Q605 314 610 310A0 0 0 0 1 610 310Q611 310 611 311A1 1-38 0 1 611 311Q610 313 610 314Z"></path><path fill="#c8b5a6" d="M419 335 427 356A0 0 0 0 1 426 356L422 349A6 4 51 0 0 422 348L409 329Q407 326 404 323C403 320 401 318 399 316Q400 314 399 312A1 1 0 0 1 400 311Q403 313 405 316 412 325 418 335 419 336 419 335Z"></path><path fill="#968070" d="M321 313 333 317Q330 317 324 317 318 317 307 319 303 320 300 321C297 322 293 323 290 324Q282 328 275 333A5 5-82 0 0 274 333C272 335 271 337 269 338Q266 340 264 342A3 3-72 0 1 263 342C256 345 248 343 241 340Q236 338 233 336C230 334 232 330 235 328Q238 325 240 324 254 317 270 314 273 314 281 312 285 312 289 312C294 312 298 311 303 312 306 312 309 312 313 312Q317 313 321 313Z"></path><path fill="#968070" d="M763 335Q754 334 749 333C739 329 735 328 727 325Q719 323 708 320C701 318 696 318 689 317Q674 317 666 317 671 314 677 313 696 311 715 313C719 314 724 315 729 316Q732 316 734 317 744 320 752 324 757 326 759 328 763 331 763 335Z"></path><path fill="#c8b5a6" d="M440 334Q442 342 444 352 444 352 443 353A0 0 0 0 1 443 353L436 336 429 323 426 318Q427 316 426 314A0 0 0 0 1 426 314Q431 317 433 322 436 328 440 334Z"></path><path fill="#a28982" d="M666 317Q674 317 689 317C696 318 701 318 708 320Q719 323 727 325C735 328 739 329 749 333Q754 334 763 335 760 338 755 340 751 342 746 343C741 344 735 344 730 340 729 339 727 338 725 337Q720 332 714 329 703 324 698 323 692 321 685 320A0 0 52 0 1 685 320L675 318A1 0-21 0 0 675 318L662 319Q664 317 666 317Z"></path><path fill="#c8b5a6" d="M641 318Q626 327 613 336 610 338 606 342L600 347C605 340 609 337 616 331 623 325 632 320 641 318Z"></path><path fill="#e3cdc5" d="M379 320Q390 329 399 340 391 339 383 335L369 322 379 320Z"></path><path fill="#968070" d="M340 320 353 327C346 327 340 327 334 329Q326 332 320 336 318 336 317 338 313 341 308 345 304 348 301 349C297 351 291 350 286 350 281 350 278 349 274 347A2 2-78 0 1 273 346Q273 342 275 340 286 329 301 324 302 324 311 322C315 320 319 320 323 320 328 320 334 320 340 320Z"></path><path fill="#968070" d="M657 321C665 321 669 321 675 322 684 322 693 325 701 327 708 330 715 334 721 339 723 340 727 345 723 347Q719 350 715 350 710 350 703 350 699 350 695 348 692 347 683 339C680 336 673 334 670 332Q661 329 653 329 647 329 644 328 651 323 657 321Z"></path><path fill="#e3cdc5" d="M615 326 609 332Q602 337 597 345 589 342 580 343L590 332 615 326Z"></path><path fill="#968070" d="M356 329 367 336 357 338 352 340A4 4 10 0 0 351 341Q350 342 348 343A6 6 4 0 0 347 344Q343 349 341 351C337 354 328 354 323 353Q320 353 316 352C313 352 313 349 314 347Q315 345 318 342 324 338 327 336C332 333 338 331 344 330 347 329 352 329 356 329Z"></path><path fill="#968070" d="M640 330C644 330 648 330 652 331 659 332 666 334 672 337Q675 339 679 342C682 344 686 347 686 351A1 1-21 0 1 685 351Q684 352 683 352C676 354 663 356 658 350Q657 349 655 347 645 337 631 337 631 337 631 336L640 330Z"></path><path fill="#ae9888" d="M370 337 363 339Q363 338 363 337A0 0 56 0 0 362 337L357 338 367 336 370 337Z"></path><path fill="#e3cdc5" d="M624 341 619 345 617 347 611 352 609 354C608 350 605 346 601 346A1 1-73 0 0 601 347Q600 348 599 348L600 347 606 342Q609 340 611 339C615 336 620 338 624 341Z"></path><path fill="#968070" d="M370 337 377 342 380 345Q377 346 375 347 371 350 367 353A8 8 19 0 1 364 354Q357 356 350 354C347 353 348 349 349 348Q354 341 363 339L370 337Z"></path><path fill="#968070" d="M619 345 624 341 628 338Q637 338 645 343 650 347 652 349C655 353 651 355 647 355Q641 355 636 354A3 3 66 0 1 635 354Q632 352 628 349 624 346 619 345Z"></path><path fill="#968070" d="M381 346 392 355 385 356A2 1 39 0 1 385 356L372 355A1 1 0 0 1 371 354C373 351 378 348 381 346Z"></path><path fill="#968070" d="M617 347Q624 348 629 353L611 352 617 347Z"></path><path fill="#a28982" d="M629 353Q629 353 630 354A1 1 0 0 1 629 355C624 356 620 357 614 356Q611 356 607 355L609 354 611 352 629 353Z"></path><path fill="#f9efe7" d="M593 427Q600 435 599 446C596 443 594 441 589 441Q585 440 581 438A7 6 64 0 0 579 437Q576 436 575 436 567 437 561 436 559 435 554 436C551 437 545 436 539 437Q529 440 522 441 520 441 510 443A6 6-52 0 1 509 443Q508 444 502 444 498 444 494 443 489 442 485 440A2 2 57 0 0 485 440L477 440A5 5 50 0 1 476 440Q471 439 468 438C465 438 462 437 460 436A12 11 52 0 0 458 436L450 435A0 0 49 0 1 450 435Q444 434 442 434 433 436 424 435A5 5 41 0 0 423 435Q419 436 418 436 412 439 405 441A3 3 18 0 0 404 441L400 445Q399 440 401 435 403 431 405 428 415 424 420 414C424 408 426 403 427 397 432 383 445 372 458 366 485 355 516 356 542 367 546 369 552 373 554 375Q565 383 569 395 572 405 574 410 580 423 593 427Z"></path><path fill="#e3cdc5" d="M599 446Q598 450 596 452 594 453 590 455 587 457 584 462C578 453 571 449 561 446 548 443 537 445 523 448 516 449 507 450 502 450Q497 450 490 447C487 446 484 445 482 446Q473 447 466 446 464 445 455 443C445 441 432 444 424 449 419 452 417 455 414 460 412 457 409 455 405 453Q400 450 400 445L404 441A3 3 18 0 1 405 441Q412 439 418 436 419 436 423 435A5 5 41 0 1 424 435Q433 436 442 434 444 434 450 435A0 0 49 0 0 450 435L458 436A12 11 52 0 1 460 436C462 437 465 438 468 438Q471 439 476 440A5 5 50 0 0 477 440L485 440A2 2 57 0 1 485 440Q489 442 494 443 498 444 502 444 508 444 509 443A6 6-52 0 0 510 443Q520 441 522 441 529 440 539 437C545 436 551 437 554 436Q559 435 561 436 567 437 575 436 576 436 579 437A7 6 64 0 1 581 438Q585 440 589 441C594 441 596 443 599 446Z"></path><path fill="#edded1" d="M584 462Q581 470 582 479C582 487 582 495 583 503Q587 546 587 555 589 583 590 612 591 642 592 661 592 661 591 662 586 660 581 661C581 645 580 628 579 612 579 602 578 592 578 581 578 568 578 555 577 542 576 532 575 528 574 519 574 512 574 504 573 494Q573 484 572 480 571 474 569 467C568 463 565 458 562 457 550 451 536 453 524 456Q512 459 502 460C493 460 485 458 475 455 464 452 455 451 444 452Q436 453 432 459C427 469 426 479 426 490Q426 495 424 503 423 514 423 516C422 523 423 530 422 537Q421 549 421 551 419 565 418 570 417 582 415 611 414 622 414 635 415 640 414 645 414 650 414 655 414 659 414 662 411 662 408 662 409 656 409 650 410 618 412 594 413 577 415 546 417 515 417 497 418 483 417 474 417 467 414 460C417 455 419 452 424 449 432 444 445 441 455 443Q464 445 466 446 473 447 482 446C484 445 487 446 490 447Q497 450 502 450C507 450 516 449 523 448 537 445 548 443 561 446 571 449 578 453 584 462Z"></path><path fill="#f9efe7" d="M581 661 580 662C575 663 570 667 567 671Q565 673 562 679C558 687 554 693 548 698 542 703 534 703 527 701 523 699 519 695 517 691Q512 683 512 681C508 675 505 672 499 670 497 669 494 669 492 669Q483 671 478 678C471 689 465 702 451 702Q440 703 434 693 431 689 429 685C426 676 422 666 414 663L414 662Q414 659 414 655 414 650 414 645 415 640 414 635 414 622 415 611 417 582 418 570 419 565 421 551 421 549 422 537C423 530 422 523 423 516Q423 514 424 503 426 495 426 490C426 479 427 469 432 459Q436 453 444 452C455 451 464 452 475 455 485 458 493 460 502 460Q512 459 524 456C536 453 550 451 562 457 565 458 568 463 569 467Q571 474 572 480 573 484 573 494C574 504 574 512 574 519 575 528 576 532 577 542 578 555 578 568 578 581 578 592 579 602 579 612 580 628 581 645 581 661Z"></path><path fill="#f8ca29" d="M591 662C591 662 592 663 592 663 592 686 591 705 591 726Q590 743 588 767 587 785 584 803C579 827 573 851 565 878Q559 900 551 919 549 924 545 930C537 942 526 946 513 948Q495 950 479 947 462 944 453 928C447 918 443 906 439 893Q438 891 434 876 424 845 418 817C410 783 408 749 408 712Q407 687 408 662 411 662 414 662L414 663Q415 666 415 669 416 683 417 690 417 692 419 699 420 702 420 709C420 719 420 729 422 738 422 745 423 749 423 755 423 763 423 768 425 775Q427 788 427 790C428 797 431 804 432 811 432 814 435 816 438 820 443 827 444 834 446 842Q448 848 449 858C450 862 452 865 455 868Q459 871 461 876C464 881 467 884 470 890 472 893 474 895 476 898Q477 899 481 907C482 910 484 913 488 912 493 910 494 906 495 902A1 1 0 0 1 496 902Q497 902 497 902C498 905 499 910 502 912A2 2-48 0 0 504 912C507 909 508 904 510 902A1 1 0 0 1 511 902C513 904 514 909 518 907 521 906 524 906 526 903Q530 895 534 886C536 883 538 880 540 878A2 2-22 0 0 540 877L541 873A4 4 79 0 1 543 871C546 868 548 866 549 862 553 849 559 838 562 825 564 818 564 812 564 805Q564 802 565 798 566 787 567 778C567 777 567 775 567 775A29 29 61 0 1 568 770Q571 762 572 760C573 754 573 747 575 741 578 729 579 717 579 705Q579 701 579 698 582 683 581 666 581 664 580 662L581 661Q586 660 591 662Z"></path><path fill="#ffd63a" d="M580 662Q581 664 581 666 582 683 579 698 579 701 579 705C579 717 578 729 575 741 573 747 573 754 572 760Q571 762 568 770A29 29 61 0 0 567 775C567 775 567 777 567 778Q566 787 565 798 564 802 564 805C564 812 564 818 562 825 559 838 553 849 549 862 548 866 546 868 543 871A4 4 79 0 0 541 873L540 877A2 2-22 0 1 540 878C538 880 536 883 534 886Q530 895 526 903C524 906 521 906 518 907 514 909 513 904 511 902A1 1 0 0 0 510 902C508 904 507 909 504 912A2 2-48 0 1 502 912C499 910 498 905 497 902Q497 902 496 902A1 1 0 0 0 495 902C494 906 493 910 488 912 484 913 482 910 481 907Q477 899 476 898C474 895 472 893 470 890 467 884 464 881 461 876Q459 871 455 868C452 865 450 862 449 858Q448 848 446 842C444 834 443 827 438 820 435 816 432 814 432 811 431 804 428 797 427 790Q427 788 425 775C423 768 423 763 423 755 423 749 422 745 422 738 420 729 420 719 420 709Q420 702 419 699 417 692 417 690 416 683 415 669 415 666 414 663C422 666 426 676 429 685Q431 689 434 693 440 703 451 702C465 702 471 689 478 678Q483 671 492 669C494 669 497 669 499 670 505 672 508 675 512 681Q512 683 517 691C519 695 523 699 527 701 534 703 542 703 548 698 554 693 558 687 562 679Q565 673 567 671C570 667 575 663 580 662Z"></path></svg>