<svg xmlns="http://www.w3.org/2000/svg" viewBox="0 0 1000 1000"><path fill="#b49b82" d="M854 421 847 417Q841 415 836 413 835 413 834 412 833 412 832 412 824 409 816 407 814 406 812 406C804 405 795 403 786 402Q780 402 774 402 765 401 755 402 754 402 752 402 735 403 724 403 705 404 695 403 675 401 657 395 639 389 624 385 622 385 617 384 613 383 610 383 596 380 586 381 578 382 574 381A4 4-47 0 0 573 381L567 383Q561 383 556 385 548 386 542 389C537 392 535 395 538 400Q539 402 538 402 531 395 529 387 528 379 528 370C528 362 531 355 534 347L535 346A1 1-79 0 1 536 346L569 338Q582 335 595 331C604 329 614 324 621 318A0 0 39 0 0 621 317L618 316Q606 311 594 308 586 307 575 306 560 304 545 305 540 306 535 306 530 306 528 307 518 308 502 311 491 314 487 314C478 316 469 317 461 318Q427 322 394 312 385 310 371 305 359 301 342 297 332 295 321 294 307 293 293 292 280 292 262 294 250 295 239 299L233 301Q230 297 228 293 225 282 226 273C229 254 240 239 256 230 272 221 287 218 309 212Q323 209 334 204C341 200 352 194 358 190Q399 170 443 177C449 178 459 180 467 182 491 188 514 193 540 204 554 210 563 213 575 218 586 222 595 226 604 232Q623 245 630 266C632 271 632 275 633 280A1 1 0 0 0 634 280Q640 278 643 277C652 274 659 270 668 268 688 261 708 258 729 262Q759 268 783 288 787 291 798 302 800 304 807 308C815 313 823 316 832 319 852 327 868 340 875 361Q883 381 872 400 865 413 854 421Z"></path><path fill="#d2bfaa" d="M293 292 290 292A0 0 6 0 0 290 293L289 293A0 0 0 0 0 290 293Q306 297 314 300 328 305 332 307C338 310 344 313 350 315A1 1 5 0 0 351 314Q351 313 351 313 342 307 333 299A0 0 0 0 1 333 298L347 303 357 312A1 1 0 0 1 357 312Q358 317 357 322L356 331A1 1 0 0 1 356 332L334 339 324 336Q324 335 325 334 337 332 348 327A1 1 0 0 0 348 325C342 325 336 323 330 323 321 323 316 322 308 322Q304 322 297 322 286 322 276 323L269 321 268 320A0 0 0 0 1 268 320Q273 319 278 319C284 318 288 318 294 317Q298 317 302 317C317 317 326 317 338 319Q340 319 345 319A1 1-30 0 0 345 318Q342 316 337 315C334 314 332 313 329 312 323 309 314 306 310 304Q305 302 299 301 283 299 271 298 267 298 255 299 247 299 239 299 250 295 262 294 280 292 293 292Z"></path><path fill="#dfd2c3" d="M342 297Q340 300 347 303L333 298A0 0 0 0 0 333 299Q342 307 351 313 351 313 351 314A1 1 5 0 1 350 315C344 313 338 310 332 307Q328 305 314 300 306 297 290 293A0 0 0 0 1 289 293L290 293A0 0 6 0 1 290 292L293 292Q307 293 321 294 332 295 342 297Z"></path><path fill="#f2ebe3" d="M342 297Q359 301 371 305 385 310 394 312 427 322 461 318C469 317 478 316 487 314Q491 314 502 311 518 308 528 307 530 306 535 306C531 309 525 310 520 311Q519 311 512 312 499 314 488 321 484 323 481 326A1 1 0 0 0 481 327Q480 336 481 345L481 355A1 1 8 0 0 482 356L483 356Q481 357 482 361 482 365 482 365 484 404 497 442 500 453 503 459 512 485 519 502C520 504 521 507 522 509Q525 515 526 519 521 519 517 518C492 515 468 522 448 538Q440 545 433 552 430 554 427 557 417 568 413 582C411 587 411 593 411 599 410 604 412 609 413 613 414 618 417 623 419 626Q419 628 420 633A1 1 85 0 1 420 634L414 634A2 2-31 0 1 413 634Q411 633 410 632 407 628 403 625 402 623 402 619 401 614 401 614C400 605 399 597 397 588 391 562 384 532 378 509Q376 501 374 492 374 491 373 487 372 485 372 483 376 479 381 476 387 471 388 471 391 469 394 466 398 462 399 459 403 452 404 449C411 419 395 397 374 379Q365 372 358 367L356 344Q357 333 357 322 358 317 357 312A1 1 0 0 0 357 312L347 303Q340 300 342 297Z"></path><path fill="#dfd2c3" d="M269 321Q257 317 251 314 245 310 238 306 236 305 233 301L239 299Q247 299 255 299 267 298 271 298 283 299 299 301 305 302 310 304C314 306 323 309 329 312 332 313 334 314 337 315Q342 316 345 318A1 1-30 0 1 345 319Q340 319 338 319C326 317 317 317 302 317Q298 317 294 317C288 318 284 318 278 319Q273 319 268 320A0 0 0 0 0 268 320L269 321Z"></path><path fill="#dfd2c3" d="M575 306Q573 307 570 308C560 309 554 310 550 311Q548 311 547 312 531 317 517 321C513 322 508 324 506 325Q500 326 494 327A0 0 18 0 1 494 326Q499 321 506 317A0 0 0 0 0 506 317Q503 316 502 317 495 319 488 321 499 314 512 312 519 311 520 311C525 310 531 309 535 306Q540 306 545 305 560 304 575 306Z"></path><path fill="#d2bfaa" d="M618 316Q610 315 602 314 592 313 589 313C579 313 568 313 558 316 551 318 548 319 538 321Q531 322 524 325C516 328 507 330 499 333A0 0 0 0 0 499 333C504 334 509 334 514 334A4 4 36 0 0 515 334C523 332 530 331 538 331Q543 331 549 331 572 330 595 331 582 335 569 338 567 338 564 338 545 337 533 338C526 338 519 337 512 337 506 338 503 338 497 338Q492 338 488 339A1 1 0 0 0 488 340Q500 347 513 348 516 349 517 351L503 353Q495 352 489 349 487 349 481 345 480 336 481 327A1 1 0 0 1 481 326Q484 323 488 321 495 319 502 317 503 316 506 317A0 0 0 0 1 506 317Q499 321 494 326A0 0 18 0 0 494 327Q500 326 506 325C508 324 513 322 517 321Q531 317 547 312 548 311 550 311C554 310 560 309 570 308Q573 307 575 306 586 307 594 308 606 311 618 316Z"></path><path fill="#dfd2c3" d="M618 316 621 317A0 0 39 0 1 621 318C614 324 604 329 595 331Q572 330 549 331 543 331 538 331C530 331 523 332 515 334A4 4 36 0 1 514 334C509 334 504 334 499 333A0 0 0 0 1 499 333C507 330 516 328 524 325Q531 322 538 321C548 319 551 318 558 316 568 313 579 313 589 313Q592 313 602 314 610 315 618 316Z"></path><path fill="#dfd2c3" d="M324 336 276 323Q286 322 297 322 304 322 308 322C316 322 321 323 330 323 336 323 342 325 348 325A1 1 0 0 1 348 327Q337 332 325 334 324 335 324 336Z"></path><path fill="#dfd2c3" d="M357 322Q357 333 356 344L334 339 356 332A1 1 0 0 0 356 331L357 322Z"></path><path fill="#b49b82" d="M358 367Q365 372 374 379C395 397 411 419 404 449Q403 452 399 459C394 463 389 466 382 469Q380 470 377 471 374 472 371 473L353 478Q351 478 352 478A0 0 2 0 1 352 477L363 474Q371 471 375 469 379 467 384 464A4 3 7 0 0 385 464Q390 459 391 458 394 454 389 451 373 444 356 444 354 443 350 443 333 443 321 444 315 444 309 445C302 447 295 447 289 448 276 450 263 451 249 450Q247 449 235 447 228 446 221 446 193 443 178 443 158 444 138 446 131 447 124 448 112 450 108 450 105 451 98 453C91 454 84 457 77 461 70 464 69 473 76 478Q80 480 83 482 85 484 86 484 92 487 98 490 102 492 110 494 119 496 127 498A0 0 0 0 1 127 498Q126 499 125 499 108 496 91 491 89 490 80 487 71 483 64 475C58 470 54 460 54 452 50 422 66 400 90 384 107 373 127 363 147 355Q173 345 200 340C209 338 217 337 229 335Q245 331 262 331C275 331 287 333 300 337Q310 341 321 346C327 349 334 353 342 357Q346 360 358 367Z"></path><path fill="#dfd2c3" d="M569 338 536 346A1 1-79 0 0 535 346L534 347Q534 346 534 347 525 348 517 351 516 349 513 348 500 347 488 340A1 1 0 0 1 488 339Q492 338 497 338C503 338 506 338 512 337 519 337 526 338 533 338Q545 337 564 338 567 338 569 338Z"></path><path fill="#dfd2c3" d="M503 353 483 356 482 356A1 1 8 0 1 481 355L481 345Q487 349 489 349 495 352 503 353Z"></path><path fill="#dfd2c3" d="M610 383Q609 383 608 384A1 1-56 0 0 609 385L613 387 609 386A1 1 0 0 0 609 387C612 392 616 396 618 402A1 1 0 0 1 617 403L610 400A3 3 53 0 0 609 400L606 400A3 3-15 0 1 604 399C602 396 601 394 597 392Q591 389 582 385C577 383 572 383 567 383L573 381A4 4-47 0 1 574 381Q578 382 586 381 596 380 610 383Z"></path><path fill="#d2bfaa" d="M567 383C572 383 577 383 582 385Q591 389 597 392C601 394 602 396 604 399A3 3-15 0 0 606 400L609 400A3 3 53 0 1 610 400L617 403A1 1 0 0 0 618 402C616 396 612 392 609 387A1 1 0 0 1 609 386L613 387C618 390 621 394 624 399A2 2 0 0 1 625 400Q621 411 619 423 616 424 614 425 609 426 603 427 600 428 597 428L596 428 592 426A0 0 0 0 1 592 425Q603 424 613 417A1 1 0 0 0 613 416Q610 415 607 414C599 413 590 412 582 409 576 408 569 407 563 406A0 0 0 0 1 563 405C567 405 569 405 572 405Q582 406 588 406 600 407 611 409A1 1 0 0 0 611 407Q606 404 602 401C595 396 588 393 581 390Q578 389 569 387 562 386 556 385 561 383 567 383Z"></path><path fill="#f2ebe3" d="M610 383Q613 383 617 384 622 385 624 385 639 389 657 395 675 401 695 403 705 404 724 403 735 403 752 402 754 402 755 402 765 401 774 402 772 403 770 403C761 404 754 404 745 408L732 413A1 1 84 0 0 732 414L728 434Q721 437 714 439 689 449 668 464C665 466 662 469 660 471 647 481 637 497 634 514Q631 527 636 539 637 543 638 544 640 548 646 552C648 555 651 556 653 557 658 560 664 562 668 564Q671 565 678 568 684 570 692 573C694 575 697 576 699 578Q697 591 693 605 688 631 684 657 684 657 684 656A0 0 0 0 0 683 656Q682 659 679 662A10 10 83 0 0 678 663Q674 669 673 671C668 676 663 682 659 686Q648 697 642 704 628 718 619 734 614 742 608 754 602 767 600 781C598 787 598 793 599 800Q599 807 601 813 587 815 572 813 567 813 563 812 569 801 572 792 576 779 576 763C576 744 573 726 570 708Q568 700 568 687 566 668 571 650 574 638 581 628 581 628 587 621 591 616 593 609 595 606 596 603C597 598 598 594 598 589Q597 573 590 560 591 554 593 545 602 518 608 484 610 475 613 460 616 438 617 435 617 435 616 434 616 434 617 434A1 1-2 0 0 617 434L619 423Q621 411 625 400A2 2 0 0 0 624 399C621 394 618 390 613 387L609 385A1 1-56 0 1 608 384Q609 383 610 383Z"></path><path fill="#dfd2c3" d="M556 385Q562 386 569 387 578 389 581 390C588 393 595 396 602 401Q606 404 611 407A1 1 0 0 1 611 409Q600 407 588 406 582 406 572 405C569 405 567 405 563 405A0 0 0 0 0 563 406C569 407 576 408 582 409 590 412 599 413 607 414Q610 415 613 416A1 1 0 0 1 613 417Q603 424 592 425A0 0 0 0 0 592 426L596 428C592 426 588 424 584 423 571 419 560 416 549 410Q543 407 538 402 539 402 538 400C535 395 537 392 542 389Q548 386 556 385Z"></path><path fill="#dfd2c3" d="M816 407Q810 408 804 408 798 407 796 407 790 408 784 409C772 411 762 413 751 415Q745 417 739 417A0 0 0 0 1 739 417Q746 412 754 409 756 408 759 406A0 0 0 0 0 759 406L745 408C754 404 761 404 770 403Q772 403 774 402 780 402 786 402C795 403 804 405 812 406Q814 406 816 407Z"></path><path fill="#d2bfaa" d="M816 407Q824 409 832 412 833 412 834 412 835 413 836 413 841 415 847 417 842 418 840 417C835 417 829 415 825 414Q812 413 805 413C795 414 789 414 782 415 769 418 757 419 744 423A0 0 0 0 0 744 423Q752 424 759 427L728 434 732 414A1 1 84 0 1 732 413L745 408 759 406A0 0 0 0 1 759 406Q756 408 754 409 746 412 739 417A0 0 0 0 0 739 417Q745 417 751 415C762 413 772 411 784 409Q790 408 796 407 798 407 804 408 810 408 816 407Z"></path><path fill="#dfd2c3" d="M847 417 854 421 851 424A1 1 4 0 1 851 425Q839 432 826 435 802 426 778 426 774 426 759 427 752 424 744 423A0 0 0 0 1 744 423C757 419 769 418 782 415 789 414 795 414 805 413Q812 413 825 414C829 415 835 417 840 417Q842 418 847 417Z"></path><path fill="#dfd2c3" d="M619 423 617 434A1 1-2 0 1 617 434Q616 434 616 434L597 428Q600 428 603 427 609 426 614 425 616 424 619 423Z"></path><path fill="#b49b82" d="M826 435Q838 441 850 447 851 448 859 451C867 454 875 456 884 459Q899 464 911 472C941 494 950 529 937 564 934 572 929 579 923 584Q917 589 907 592L906 592A0 0 0 0 1 906 591C911 589 916 587 920 582 921 580 920 578 918 577Q915 574 911 573 909 572 907 571 903 569 889 565 873 560 856 558 855 558 854 558 832 556 813 555C792 554 770 548 748 541A6 6-32 0 0 747 541Q744 541 740 539 732 536 723 535 711 532 699 530 691 530 683 529 675 529 665 529 654 530 645 536 644 538 645 541C647 545 653 548 657 550L672 558 689 564A0 0 0 0 1 689 565L689 565A1 1 0 0 1 688 565Q673 560 663 556 659 555 653 553C649 550 644 547 640 543Q638 542 636 539 631 527 634 514C637 497 647 481 660 471 662 469 665 466 668 464Q689 449 714 439 721 437 728 434L759 427Q774 426 778 426 802 426 826 435Z"></path><path fill="#dfd2c3" d="M356 444Q345 447 334 450 331 451 313 458C311 459 309 460 306 461A1 1 0 0 1 305 460C308 456 311 454 318 449A0 0 0 0 0 318 448Q310 450 303 454L311 447A1 1-65 0 1 312 447Q312 447 312 447A1 1 30 0 0 312 445L309 445Q315 444 321 444 333 443 350 443 354 443 356 444Z"></path><path fill="#dfd2c3" d="M221 446Q211 446 201 450C198 452 197 456 197 459Q188 453 178 448C175 447 172 446 169 445A1 1 0 0 0 169 447Q180 454 189 463A0 0 0 0 1 188 464C183 463 179 462 174 461Q167 460 163 458C158 456 154 455 149 454Q137 450 124 448 131 447 138 446 158 444 178 443 193 443 221 446Z"></path><path fill="#d2bfaa" d="M389 451Q377 450 366 450C357 450 349 453 341 454Q322 459 306 467A0 0 0 0 0 306 468Q307 468 309 469 317 471 329 474 337 476 343 475 355 474 363 474L352 477A0 0 2 0 0 352 478Q351 478 353 478L336 482Q330 480 324 480 317 479 315 478 310 476 305 474A1 1 0 0 0 304 475Q307 478 311 481 313 482 315 485L312 486C306 485 302 481 298 476L297 459A3 3 74 0 1 298 456L303 454Q310 450 318 448A0 0 0 0 1 318 449C311 454 308 456 305 460A1 1 0 0 0 306 461C309 460 311 459 313 458Q331 451 334 450 345 447 356 444 373 444 389 451Z"></path><path fill="#d2bfaa" d="M197 459Q196 463 195 467 195 469 195 472 195 478 194 484 189 487 188 488 177 494 167 501L155 501 150 500A0 0 0 0 1 150 500Q155 497 155 497C160 495 164 494 168 492Q177 486 182 482 183 481 184 480A1 1 0 0 0 184 479Q183 479 181 479C167 481 155 482 140 482 135 482 132 482 126 481Q122 480 117 480 110 480 101 479A0 0-87 0 1 101 479L101 478A0 0 87 0 1 101 478Q102 478 115 478 121 478 129 477 131 477 151 475C157 474 162 473 169 473Q175 472 181 471A1 1 0 0 0 181 470Q159 464 154 462 144 459 135 457 121 455 116 454 107 454 98 453 105 451 108 450 112 450 124 448 137 450 149 454C154 455 158 456 163 458Q167 460 174 461C179 462 183 463 188 464A0 0 0 0 0 189 463Q180 454 169 447A1 1 0 0 1 169 445C172 446 175 447 178 448Q188 453 197 459Z"></path><path fill="#f2ebe3" d="M309 445 312 445A1 1 30 0 1 312 447Q312 447 312 447A1 1-65 0 0 311 447L303 454 298 456A3 3 74 0 0 297 459L298 476Q299 481 299 486 299 487 299 487 300 488 301 488L300 488A1 1 85 0 0 299 488Q301 510 310 530C321 555 338 575 357 595Q359 597 391 630 393 632 398 637 401 641 405 644 405 645 405 645 423 664 433 679 437 686 438 688 443 704 444 720 444 726 443 737 442 747 442 754 442 775 449 795 451 801 456 810 451 811 441 814 415 820 388 818 372 816 358 811 351 808 342 802C332 795 323 784 317 773Q311 762 302 747C286 717 269 690 246 656Q233 636 221 611 203 576 197 540 194 522 194 499L194 484Q195 478 195 472 195 469 195 467 196 463 197 459C197 456 198 452 201 450Q211 446 221 446 228 446 235 447 247 449 249 450C263 451 276 450 289 448 295 447 302 447 309 445Z"></path><path fill="#dfd2c3" d="M389 451Q394 454 391 458 390 459 385 464A4 3 7 0 1 384 464Q379 467 375 469 371 471 363 474 355 474 343 475 337 476 329 474 317 471 309 469 307 468 306 468A0 0 0 0 1 306 467Q322 459 341 454C349 453 357 450 366 450Q377 450 389 451Z"></path><path fill="#dfd2c3" d="M98 453Q107 454 116 454 121 455 135 457 144 459 154 462 159 464 181 470A1 1 0 0 1 181 471Q175 472 169 473C162 473 157 474 151 475Q131 477 129 477 121 478 115 478 102 478 101 478A0 0 87 0 0 101 478L101 479A0 0-87 0 0 101 479Q110 480 117 480 122 480 126 481C132 482 135 482 140 482 155 482 167 481 181 479Q183 479 184 479A1 1 0 0 1 184 480Q183 481 182 482 177 486 168 492C164 494 160 495 155 497Q155 497 150 500A0 0 0 0 0 150 500L155 501Q148 501 142 500C137 500 131 500 125 499Q126 499 127 498A0 0 0 0 0 127 498Q119 496 110 494 102 492 98 490 92 487 86 484 85 484 83 482 80 480 76 478C69 473 70 464 77 461 84 457 91 454 98 453Z"></path><path fill="#dfd2c3" d="M399 459Q398 462 394 466 391 469 388 471 387 471 381 476 376 479 372 483L371 473Q374 472 377 471 380 470 382 469C389 466 394 463 399 459Z"></path><path fill="#dfd2c3" d="M336 482 315 485Q313 482 311 481 307 478 304 475A1 1 0 0 1 305 474Q310 476 315 478 317 479 324 480 330 480 336 482Z"></path><path fill="#dfd2c3" d="M312 486 301 488Q300 488 299 487 299 487 299 486 299 481 298 476C302 481 306 485 312 486Z"></path><path fill="#dfd2c3" d="M194 484 194 499C190 499 187 499 183 500Q176 501 173 501 168 500 167 501 177 494 188 488 189 487 194 484Z"></path><path fill="#b49b82" d="M526 519Q541 523 552 528 565 535 576 544 583 551 590 560 597 573 598 589C598 594 597 598 596 603Q595 606 593 609 587 616 579 619 574 621 566 622L563 624 561 623A0 0 0 0 1 561 623Q569 621 574 618C579 615 581 614 584 611Q585 610 585 609 584 607 582 606 576 604 571 604A4 3-35 0 1 570 604C563 602 555 603 547 604Q534 606 530 607 510 609 490 606C486 606 482 606 478 606 471 604 465 605 458 605Q455 606 448 608L443 609C440 610 434 611 432 614A3 3-50 0 0 432 617Q434 619 436 620 445 624 454 626L457 627A0 0 0 0 1 457 627L453 627Q443 626 437 624 429 622 422 615A3 3 8 0 1 421 615Q419 611 418 609 413 590 421 572 426 562 433 552 440 545 448 538C468 522 492 515 517 518Q521 519 526 519Z"></path><path fill="#d2bfaa" d="M683 529Q686 531 694 534 699 537 717 547C719 548 721 549 724 550A1 1 0 0 0 725 549Q722 543 717 538A1 1 0 0 1 718 537Q729 543 731 552L730 559 728 565A1 1-6 0 1 727 566Q719 571 710 571L704 570Q708 568 712 567 716 565 717 565 720 564 722 562A0 0 0 0 0 722 562Q720 560 717 559C712 558 707 558 701 557 686 557 680 557 669 555A0 0 0 0 0 669 556L672 558 657 550 684 553A0 0 0 0 0 684 553L674 550A0 0 0 0 1 674 550L674 550A0 0 0 0 1 675 549Q689 551 693 551 698 551 704 552 709 553 719 555A1 1 0 0 0 720 554Q714 550 702 544C692 538 681 535 670 533Q659 532 645 536 654 530 665 529 675 529 683 529Z"></path><path fill="#dfd2c3" d="M683 529Q691 530 699 530 711 532 723 535 721 535 721 536A1 1 34 0 0 721 537L732 544A2 2 23 0 1 733 546L731 552Q729 543 718 537A1 1 0 0 0 717 538Q722 543 725 549A1 1 0 0 1 724 550C721 549 719 548 717 547Q699 537 694 534 686 531 683 529Z"></path><path fill="#dfd2c3" d="M657 550C653 548 647 545 645 541Q644 538 645 536 659 532 670 533C681 535 692 538 702 544Q714 550 720 554A1 1 0 0 1 719 555Q709 553 704 552 698 551 693 551 689 551 675 549A0 0 0 0 0 674 550L674 550A0 0 0 0 0 674 550L684 553A0 0 0 0 1 684 553L657 550Z"></path><path fill="#f2ebe3" d="M723 535Q732 536 740 539 744 541 747 541A6 6-32 0 1 748 541C770 548 792 554 813 555Q832 556 854 558 855 558 856 558 858 559 859 559A0 0 7 0 1 859 559L859 560A1 1 0 0 1 859 560Q850 559 841 562L830 566A2 2 85 0 0 829 568L827 583 825 595Q824 596 824 596 822 607 819 619 806 673 782 723C776 735 769 747 762 759 757 768 750 777 744 784Q733 797 723 805 696 825 663 827C644 827 625 824 610 813Q609 812 609 812 609 811 609 811C607 805 608 799 608 792Q608 787 609 782 613 766 619 754 629 732 647 710C658 697 671 684 682 670Q683 669 683 667L683 667A0 0 0 0 0 683 667Q687 663 690 659C693 654 696 651 699 646Q713 623 721 593 724 583 726 576 728 567 730 559L731 552 733 546A2 2 23 0 0 732 544L721 537A1 1 34 0 1 721 536Q721 535 723 535Z"></path><path fill="#dfd2c3" d="M672 558 669 556A0 0 0 0 1 669 555C680 557 686 557 701 557 707 558 712 558 717 559Q720 560 722 562A0 0 0 0 1 722 562Q720 564 717 565 716 565 712 567 708 568 704 570 703 570 702 569A1 1 18 0 0 701 570L699 578C697 576 694 575 692 573Q684 570 678 568 671 565 668 564C664 562 658 560 653 557 651 556 648 555 646 552Q640 548 638 544 637 543 636 539 638 542 640 543C644 547 649 550 653 553Q659 555 663 556 673 560 688 565A1 1 0 0 0 689 565L689 565A0 0 0 0 0 689 564L672 558Z"></path><path fill="#dfd2c3" d="M433 552Q426 562 421 572 413 590 418 609 419 611 421 615A3 3 8 0 0 422 615Q429 622 437 624 443 626 453 627 461 628 470 628 472 628 475 627C474 637 474 648 472 657Q470 670 465 684C459 704 454 720 451 738Q447 757 449 776 450 785 452 793 455 801 458 809 457 810 456 810 451 801 449 795 442 775 442 754 442 747 443 737 444 726 444 720 443 704 438 688 437 686 433 679 423 664 405 645 405 645 405 644L403 625Q407 628 410 632 411 633 413 634A2 2-31 0 0 414 634L420 634A1 1 85 0 0 420 633Q419 628 419 626C417 623 414 618 413 613 412 609 410 604 411 599 411 593 411 587 413 582Q417 568 427 557 430 554 433 552Z"></path><path fill="#dfd2c3" d="M889 565Q875 565 863 566C858 567 851 569 847 569Q841 570 837 571A0 0 0 0 1 836 570Q844 564 852 561A0 0 0 0 0 852 561L841 562Q850 559 859 560A1 1 0 0 0 859 560L859 559A0 0 7 0 0 859 559Q858 559 856 558 873 560 889 565Z"></path><path fill="#dfd2c3" d="M730 559Q728 567 726 576L710 571Q719 571 727 566A1 1-6 0 0 728 565L730 559Z"></path><path fill="#d2bfaa" d="M889 565Q903 569 907 571 909 572 911 573 907 573 902 572C891 570 878 571 868 572Q853 574 835 577A1 1 0 0 0 835 579C843 584 852 590 863 592Q873 594 883 595A0 0 0 0 1 884 595Q883 596 883 596 869 598 856 597 852 595 846 593 843 592 843 591 840 589 834 586A1 1 0 0 0 833 587Q835 591 839 595A1 1 0 0 1 839 596C832 594 828 588 827 583L829 568A2 2 85 0 1 830 566L841 562 852 561A0 0 0 0 1 852 561Q844 564 836 570A0 0 0 0 0 837 571Q841 570 847 569C851 569 858 567 863 566Q875 565 889 565Z"></path><path fill="#dfd2c3" d="M911 573Q915 574 918 577C920 578 921 580 920 582 916 587 911 589 906 591A0 0 0 0 0 906 592L907 592Q905 592 904 593 893 595 883 596 883 596 884 595A0 0 0 0 0 883 595Q873 594 863 592C852 590 843 584 835 579A1 1 0 0 1 835 577Q853 574 868 572C878 571 891 570 902 572Q907 573 911 573Z"></path><path fill="#dfd2c3" d="M827 583C828 588 832 594 839 596A1 1 0 0 0 839 595Q835 591 833 587A1 1 0 0 1 834 586Q840 589 843 591 843 592 846 593 852 595 856 597 840 597 832 596 827 595 825 595L827 583Z"></path><path fill="#dfd2c3" d="M563 624Q560 625 557 625A1 1-1 0 0 557 625L558 641A1 1-36 0 0 559 641L566 625A1 1 83 0 1 566 624Q568 623 566 622 574 621 579 619 587 616 593 609 591 616 587 621 581 628 581 628 574 638 571 650 566 668 568 687 568 700 570 708C573 726 576 744 576 763Q576 779 572 792 569 801 563 812 561 812 558 811 560 807 562 803 564 798 565 794 569 780 569 765 569 747 567 732 565 721 561 704 557 685 556 675C555 662 553 649 554 636 554 627 553 619 552 610A3 3 37 0 0 552 609Q551 606 547 604C555 603 563 602 570 604A4 3-35 0 0 571 604Q576 604 582 606 584 607 585 609 585 610 584 611C581 614 579 615 574 618Q569 621 561 623A0 0 0 0 0 561 623L563 624Z"></path><path fill="#f2ebe3" d="M547 604Q551 606 552 609A3 3 37 0 1 552 610C553 619 554 627 554 636 553 649 555 662 556 675Q557 685 561 704 565 721 567 732 569 747 569 765 569 780 565 794 564 798 562 803 560 807 558 811 552 815 550 817C527 829 499 830 476 820Q466 816 458 809 455 801 452 793 450 785 449 776 447 757 451 738C454 720 459 704 465 684Q470 670 472 657C474 648 474 637 475 627L475 612 476 606A1 1-5 0 1 477 606Q477 605 478 606C482 606 486 606 490 606Q510 609 530 607 534 606 547 604Z"></path><path fill="#dfd2c3" d="M478 606Q477 605 477 606A1 1-5 0 0 476 606L475 612Q472 608 467 607A0 0 0 0 0 466 607Q468 609 470 610A1 1-47 0 1 470 611Q470 612 470 612A1 1 46 0 1 469 612L459 608A3 2 53 0 0 459 608L448 608Q455 606 458 605C465 605 471 604 478 606Z"></path><path fill="#d2bfaa" d="M475 612 475 627Q472 628 470 628 461 628 453 627L457 627A0 0 0 0 0 457 627L454 626 462 627A4 4 31 0 0 465 626L470 622A1 1 0 0 0 470 621L459 620A0 0 0 0 1 459 619Q465 618 471 618A1 1 0 0 0 472 617C470 615 468 614 466 614Q455 610 443 609L448 608 459 608A3 2 53 0 1 459 608L469 612A1 1 46 0 0 470 612Q470 612 470 611A1 1-47 0 0 470 610Q468 609 466 607A0 0 0 0 1 467 607Q472 608 475 612Z"></path><path fill="#dfd2c3" d="M443 609Q455 610 466 614C468 614 470 615 472 617A1 1 0 0 1 471 618Q465 618 459 619A0 0 0 0 0 459 620L470 621A1 1 0 0 1 470 622L465 626A4 4 31 0 1 462 627L454 626Q445 624 436 620 434 619 432 617A3 3-50 0 1 432 614C434 611 440 610 443 609Z"></path><path fill="#dfd2c3" d="M684 657 683 667Q683 669 682 670C671 684 658 697 647 710Q629 732 619 754 613 766 609 782 608 787 608 792C608 799 607 805 609 811Q609 811 609 812L601 813Q599 807 599 800C598 793 598 787 600 781Q602 767 608 754 614 742 619 734 628 718 642 704 648 697 659 686C663 682 668 676 673 671Q674 669 678 663A10 10 83 0 1 679 662Q682 659 683 656A0 0 0 0 1 684 656Q684 657 684 657Z"></path></svg>