<svg xmlns="http://www.w3.org/2000/svg" viewBox="0 0 1000 1000"><path fill="#ffffff" d="M195 817C223 844 254 868 288 887Q299 893 306 897C336 912 369 925 402 932Q479 950 555 941 625 932 691 901C779 859 851 787 894 699Q932 621 939 532C942 493 939 450 931 410Q925 382 918 360C879 240 789 141 673 94 578 55 474 50 376 80Q285 107 212 171C137 237 86 330 70 429 58 497 63 569 84 635 94 665 106 696 122 722 142 755 166 788 195 817Z"></path><path fill="#e92e33" d="M195 817C166 788 142 755 122 722 106 696 94 665 84 635 63 569 58 497 70 429 86 330 137 237 212 171Q285 107 376 80C474 50 578 55 673 94 789 141 879 240 918 360Q925 382 931 410C939 450 942 493 939 532Q932 621 894 699C851 787 779 859 691 901Q625 932 555 941 479 950 402 932C369 925 336 912 306 897Q299 893 288 887C254 868 223 844 195 817ZM260 224 781 745A1 1 43 0 0 783 745C829 692 858 625 868 555 878 481 866 405 833 337 802 275 753 222 693 186 629 146 554 128 478 133 398 139 322 171 260 223A0 0 0 0 0 260 224ZM733 794 214 274A1 1 0 0 0 213 274C188 305 169 339 156 375Q125 458 135 545 143 612 173 673C226 778 330 853 446 872Q492 879 537 875C609 868 677 839 733 794A0 0 0 0 0 733 794Z"></path><path fill="#ffffff" d="M260 224A0 0 0 0 1 260 223C322 171 398 139 478 133 554 128 629 146 693 186 753 222 802 275 833 337 866 405 878 481 868 555 858 625 829 692 783 745A1 1 43 0 1 781 745L260 224ZM630 576A0 0-24 0 0 630 576Q665 573 699 564 706 562 715 558C727 554 739 549 750 541 765 530 776 514 779 494 781 475 779 455 774 437 764 396 743 357 715 324 668 267 600 228 527 222Q455 216 390 248 361 261 336 281A1 1-42 0 0 336 282L546 492A2 2 68 0 0 547 492C587 493 628 496 667 502 677 504 686 506 695 508 702 510 709 512 716 515 720 517 725 519 727 523 729 528 726 533 721 535 710 543 699 547 683 553Q667 559 644 564 642 565 623 569A0 0 0 0 0 623 569L630 576Z"></path><path fill="#404449" d="M630 576 623 569A0 0 0 0 1 623 569Q642 565 644 564 667 559 683 553C699 547 710 543 721 535 726 533 729 528 727 523 725 519 720 517 716 515 709 512 702 510 695 508 686 506 677 504 667 502 628 496 587 493 547 492A2 2 68 0 1 546 492L336 282A1 1-42 0 1 336 281Q361 261 390 248 455 216 527 222C600 228 668 267 715 324 743 357 764 396 774 437 779 455 781 475 779 494 776 514 765 530 750 541 739 549 727 554 715 558Q706 562 699 564 665 573 630 576A0 0-24 0 1 630 576Z"></path><path fill="#ffffff" d="M733 794A0 0 0 0 1 733 794C677 839 609 868 537 875Q492 879 446 872C330 853 226 778 173 673Q143 612 135 545 125 458 156 375C169 339 188 305 213 274A1 1 0 0 1 214 274L733 794ZM416 494Q410 487 406 484 398 476 396 474 396 474 383 461 352 430 313 391C307 385 302 381 298 375 294 371 287 365 282 359Q278 356 274 352A1 1 0 0 0 273 352C251 383 234 421 228 457 224 482 226 506 241 526 250 538 264 547 277 553Q301 563 327 568 357 574 380 576A0 0 10 0 0 380 576L382 568A0 0-78 0 0 382 568Q346 562 312 550C303 546 298 544 288 538 281 535 273 527 282 520 287 515 295 513 302 511Q316 507 331 504 363 498 394 496 404 495 416 494A0 0 0 0 0 416 494ZM441 520C436 520 430 521 426 522 421 523 416 525 412 530Q410 532 408 537C399 558 394 578 388 602Q377 644 372 684 369 708 371 729C372 755 382 779 401 796 417 811 439 819 460 823Q496 829 532 824C570 819 604 799 618 762 625 744 626 725 625 706 625 705 625 703 624 701Q575 653 511 589C508 585 504 582 501 578 495 573 488 565 483 560 476 554 468 545 463 540Q457 535 442 520A1 1 64 0 0 441 520Z"></path><path fill="#404449" d="M416 494A0 0 0 0 1 416 494Q404 495 394 496 363 498 331 504 316 507 302 511C295 513 287 515 282 520 273 527 281 535 288 538 298 544 303 546 312 550Q346 562 382 568A0 0-78 0 1 382 568L380 576A0 0 10 0 1 380 576Q357 574 327 568 301 563 277 553C264 547 250 538 241 526 226 506 224 482 228 457 234 421 251 383 273 352A1 1 0 0 1 274 352Q278 356 282 359C287 365 294 371 298 375 302 381 307 385 313 391Q352 430 383 461 396 474 396 474 398 476 406 484 410 487 416 494Z"></path><path fill="#404449" d="M441 520A1 1 64 0 1 442 520Q457 535 463 540C468 545 476 554 483 560 488 565 495 573 501 578 504 582 508 585 511 589Q575 653 624 701C625 703 625 705 625 706 626 725 625 744 618 762 604 799 570 819 532 824Q496 829 460 823C439 819 417 811 401 796 382 779 372 755 371 729Q369 708 372 684 377 644 388 602C394 578 399 558 408 537Q410 532 412 530C416 525 421 523 426 522 430 521 436 520 441 520Z"></path></svg>